<?xml version="1.0" encoding="UTF-8" standalone="no"?>
<!-- Created with Inkscape (http://www.inkscape.org/) -->

<svg
   xmlns:dc="http://purl.org/dc/elements/1.1/"
   xmlns:cc="http://creativecommons.org/ns#"
   xmlns:rdf="http://www.w3.org/1999/02/22-rdf-syntax-ns#"
   xmlns:svg="http://www.w3.org/2000/svg"
   xmlns="http://www.w3.org/2000/svg"
   xmlns:xlink="http://www.w3.org/1999/xlink"
   xmlns:sodipodi="http://sodipodi.sourceforge.net/DTD/sodipodi-0.dtd"
   xmlns:inkscape="http://www.inkscape.org/namespaces/inkscape"
   width="744.09448819"
   height="1052.3622047"
   id="svg2"
   version="1.1"
   inkscape:version="0.47 r22583"
   sodipodi:docname="effects.svg">
  <defs
     id="defs4">
    <linearGradient
       id="linearGradient5272">
      <stop
         style="stop-color:#ffffff;stop-opacity:0;"
         offset="0"
         id="stop5274" />
      <stop
         id="stop5280"
         offset="0.85714287"
         style="stop-color:#ffffff;stop-opacity:0;" />
      <stop
         style="stop-color:#ffffff;stop-opacity:0.21641791;"
         offset="1"
         id="stop5276" />
    </linearGradient>
    <inkscape:perspective
       sodipodi:type="inkscape:persp3d"
       inkscape:vp_x="0 : 526.18109 : 1"
       inkscape:vp_y="0 : 1000 : 0"
       inkscape:vp_z="744.09448 : 526.18109 : 1"
       inkscape:persp3d-origin="372.04724 : 350.78739 : 1"
       id="perspective10" />
    <filter
       inkscape:collect="always"
       id="filter8442">
      <feGaussianBlur
         inkscape:collect="always"
         stdDeviation="31.658394"
         id="feGaussianBlur8444" />
    </filter>
    <filter
       inkscape:collect="always"
       id="filter8454">
      <feGaussianBlur
         inkscape:collect="always"
         stdDeviation="40.100404"
         id="feGaussianBlur8456" />
    </filter>
    <filter
       inkscape:collect="always"
       id="filter8458">
      <feGaussianBlur
         inkscape:collect="always"
         stdDeviation="25.412606"
         id="feGaussianBlur8460" />
    </filter>
    <filter
       inkscape:collect="always"
       id="filter8466">
      <feGaussianBlur
         inkscape:collect="always"
         stdDeviation="34.287969"
         id="feGaussianBlur8468" />
    </filter>
    <radialGradient
       inkscape:collect="always"
       xlink:href="#linearGradient5272"
       id="radialGradient5278"
       cx="1028.5714"
       cy="875.2193"
       fx="1028.5714"
       fy="875.2193"
       r="497.14285"
       gradientUnits="userSpaceOnUse" />
    <filter
       inkscape:collect="always"
       id="filter3672">
      <feGaussianBlur
         inkscape:collect="always"
         stdDeviation="3.1512533"
         id="feGaussianBlur3674" />
    </filter>
    <filter
       inkscape:collect="always"
       id="filter3676">
      <feGaussianBlur
         inkscape:collect="always"
         stdDeviation="3.1512533"
         id="feGaussianBlur3678" />
    </filter>
    <filter
       inkscape:collect="always"
       id="filter3680">
      <feGaussianBlur
         inkscape:collect="always"
         stdDeviation="3.1512533"
         id="feGaussianBlur3682" />
    </filter>
    <filter
       inkscape:collect="always"
       id="filter3684">
      <feGaussianBlur
         inkscape:collect="always"
         stdDeviation="3.1512533"
         id="feGaussianBlur3686" />
    </filter>
    <filter
       inkscape:collect="always"
       id="filter3688">
      <feGaussianBlur
         inkscape:collect="always"
         stdDeviation="3.1512533"
         id="feGaussianBlur3690" />
    </filter>
    <filter
       inkscape:collect="always"
       id="filter3692"
       x="-0.02903953"
       width="1.0580791"
       y="-0.17703023"
       height="1.3540605">
      <feGaussianBlur
         inkscape:collect="always"
         stdDeviation="3.1512533"
         id="feGaussianBlur3694" />
    </filter>
    <filter
       inkscape:collect="always"
       id="filter3696">
      <feGaussianBlur
         inkscape:collect="always"
         stdDeviation="3.1512533"
         id="feGaussianBlur3698" />
    </filter>
    <filter
       inkscape:collect="always"
       id="filter3700"
       x="-0.02903953"
       width="1.0580791"
       y="-0.17703023"
       height="1.3540605">
      <feGaussianBlur
         inkscape:collect="always"
         stdDeviation="3.1512533"
         id="feGaussianBlur3702" />
    </filter>
    <filter
       inkscape:collect="always"
       id="filter3704">
      <feGaussianBlur
         inkscape:collect="always"
         stdDeviation="3.1512533"
         id="feGaussianBlur3706" />
    </filter>
    <filter
       inkscape:collect="always"
       id="filter3708">
      <feGaussianBlur
         inkscape:collect="always"
         stdDeviation="3.1512533"
         id="feGaussianBlur3710" />
    </filter>
    <filter
       inkscape:collect="always"
       id="filter3712">
      <feGaussianBlur
         inkscape:collect="always"
         stdDeviation="3.1512533"
         id="feGaussianBlur3714" />
    </filter>
    <filter
       inkscape:collect="always"
       id="filter3716">
      <feGaussianBlur
         inkscape:collect="always"
         stdDeviation="3.1512533"
         id="feGaussianBlur3718" />
    </filter>
    <filter
       inkscape:collect="always"
       id="filter3926">
      <feGaussianBlur
         inkscape:collect="always"
         stdDeviation="8.6903423"
         id="feGaussianBlur3928" />
    </filter>
    <filter
       inkscape:collect="always"
       id="filter3947">
      <feGaussianBlur
         inkscape:collect="always"
         stdDeviation="8.6903423"
         id="feGaussianBlur3949" />
    </filter>
    <inkscape:perspective
       id="perspective4066"
       inkscape:persp3d-origin="0.5 : 0.33333333 : 1"
       inkscape:vp_z="1 : 0.5 : 1"
       inkscape:vp_y="0 : 1000 : 0"
       inkscape:vp_x="0 : 0.5 : 1"
       sodipodi:type="inkscape:persp3d" />
    <inkscape:perspective
       id="perspective4066-6"
       inkscape:persp3d-origin="0.5 : 0.33333333 : 1"
       inkscape:vp_z="1 : 0.5 : 1"
       inkscape:vp_y="0 : 1000 : 0"
       inkscape:vp_x="0 : 0.5 : 1"
       sodipodi:type="inkscape:persp3d" />
    <inkscape:perspective
       id="perspective4066-7"
       inkscape:persp3d-origin="0.5 : 0.33333333 : 1"
       inkscape:vp_z="1 : 0.5 : 1"
       inkscape:vp_y="0 : 1000 : 0"
       inkscape:vp_x="0 : 0.5 : 1"
       sodipodi:type="inkscape:persp3d" />
  </defs>
  <sodipodi:namedview
     id="base"
     pagecolor="#000000"
     bordercolor="#666666"
     borderopacity="1.0"
     inkscape:pageopacity="0"
     inkscape:pageshadow="2"
     inkscape:zoom="0.35355339"
     inkscape:cx="2554.5426"
     inkscape:cy="-769.52961"
     inkscape:document-units="px"
     inkscape:current-layer="layer1"
     showgrid="false"
     showborder="false"
     inkscape:showpageshadow="false"
     inkscape:window-width="1920"
     inkscape:window-height="1118"
     inkscape:window-x="0"
     inkscape:window-y="25"
     inkscape:window-maximized="1" />
  <metadata
     id="metadata7">
    <rdf:RDF>
      <cc:Work
         rdf:about="">
        <dc:format>image/svg+xml</dc:format>
        <dc:type
           rdf:resource="http://purl.org/dc/dcmitype/StillImage" />
        <dc:title></dc:title>
      </cc:Work>
    </rdf:RDF>
  </metadata>
  <g
     inkscape:label="Layer 1"
     inkscape:groupmode="layer"
     id="layer1">
    <rect
       style="fill:#000000;fill-opacity:1;stroke:none"
       id="rect8497"
       width="15014.907"
       height="12380.43"
       x="-6319.5142"
       y="-3376.1465"
       sodipodi:insensitive="true" />
    <g
       id="lightning2"
       inkscape:label="#g4116"
       inkscape:export-filename="/home/vdods/files/sf/xuqrijbuh/trunk/resources/lightning2.png"
       inkscape:export-xdpi="6.6900001"
       inkscape:export-ydpi="6.6900001">
      <g
         transform="translate(-15.480503,-22.378514)"
         id="g4019">
        <path
           id="path3813"
           d="m 2749.2312,1847.1502 c 9.9036,-10.0123 5.6333,-12.9138 -2.4864,-1.2751 -14.8919,15.2961 -35.479,23.3075 -52.655,35.5234 -20.1275,6.4967 -33.4862,29.0577 -33.7041,50.7081 -0.2747,19.8129 -7.9416,44.8855 -32.8457,43.8234 -24.7944,-1.1271 -49.2048,-12.033 -74.5287,-7.2051 -24.1409,-2.5547 -50.1574,-1.1247 -72.0431,9.6746 -10.8527,2.016 -28.0059,-4.867 -33.9829,11.0536 -7.2244,11.2426 -6.0491,35.185 -26.2072,23.314 -17.6047,-8.6068 -37.9155,-13.0102 -53.175,-25.1844 -16.7845,-6.0279 -30.6251,-17.705 -46.2129,-25.6025 -15.7616,-17.8159 -44.2446,-16.4561 -63.0308,-5.4914 -12.7101,1.4248 -26.8597,-8.3199 -40.8725,-7.5152"
           style="fill:none;stroke:#320050;stroke-width:80;stroke-linecap:round;stroke-linejoin:bevel;stroke-miterlimit:4;stroke-opacity:1;stroke-dasharray:none;filter:url(#filter3947)" />
        <path
           id="path3817"
           d="m 2421.1336,2045.1401 c 2.9829,-4.4349 8.425,-16.4831 1.7133,-5.6132 -11.5897,15.0567 -16.9866,33.7931 -25.6433,49.9219 -7.1419,14.0464 -15.2597,27.3503 -24.5412,40.0166 0.2704,14.2834 -3.845,29.404 -0.358,44.5702 3.2044,12.6758 4.6582,27.5634 0.2266,39.8917 -14.7983,-2.7087 -22.1182,12.7026 -35.3029,16.3185 -13.6593,1.9406 -19.3988,17.8455 -27.7039,26.9169 -5.5429,13.9772 -25.4016,11.4148 -37.887,16.1577 -16.0557,2.075 -32.3408,0.3361 -48.4935,0.9225 -2.8991,2.2638 -9.1425,2.3313 -8.5435,2.2623 -2.8875,8.3152 -9.9303,17.0618 -14.0839,26.022"
           style="fill:none;stroke:#320050;stroke-width:80;stroke-linecap:round;stroke-linejoin:bevel;stroke-miterlimit:4;stroke-opacity:1;stroke-dasharray:none;filter:url(#filter3947)" />
        <path
           id="path3821"
           d="m 2503.158,2534.458 c -1.7712,-19.1042 9.5246,-37.6693 15.3013,-56.5094 -1.9648,-19.5356 16.9071,-36.0542 35.5671,-25.8497 17.2727,-0.5995 33.8592,5.8776 52.3874,4.7399 12.1006,3.5484 23.0428,5.1867 29.8692,-7.4636 13.8743,6.3845 42.113,-12.3616 32.4846,-29.6008 -2.8636,-22.1133 12.9894,-40.57 22.6626,-59.0576 9.8199,-18.348 28.5552,-29.7092 39.6488,-46.4488 6.1881,-18.8455 25.6768,-35.4679 5.8124,-51.8537 -1.4891,-11.2217 22.203,7.9764 29.752,1.6431 23.1886,2.3266 45.1465,20.9772 68.8123,9.0152 15.31,-4.6258 31.2578,1.4031 44.8955,-0.5169 17.6929,7.9067 35.5793,14.7247 55.7611,8.9755 l 3.0088,0.2858 2.4431,0.911"
           style="fill:none;stroke:#320050;stroke-width:80;stroke-linecap:round;stroke-linejoin:bevel;stroke-miterlimit:4;stroke-opacity:1;stroke-dasharray:none;filter:url(#filter3947)" />
        <path
           style="fill:none;stroke:#ffffff;stroke-width:30;stroke-linecap:round;stroke-linejoin:bevel;stroke-miterlimit:4;stroke-opacity:1;stroke-dasharray:none;filter:url(#filter3926)"
           d="m 2749.2312,1847.1502 c 9.9036,-10.0123 5.6333,-12.9138 -2.4864,-1.2751 -14.8919,15.2961 -35.479,23.3075 -52.655,35.5234 -20.1275,6.4967 -33.4862,29.0577 -33.7041,50.7081 -0.2747,19.8129 -7.9416,44.8855 -32.8457,43.8234 -24.7944,-1.1271 -49.2048,-12.033 -74.5287,-7.2051 -24.1409,-2.5547 -50.1574,-1.1247 -72.0431,9.6746 -10.8527,2.016 -28.0059,-4.867 -33.9829,11.0536 -7.2244,11.2426 -6.0491,35.185 -26.2072,23.314 -17.6047,-8.6068 -37.9155,-13.0102 -53.175,-25.1844 -16.7845,-6.0279 -30.6251,-17.705 -46.2129,-25.6025 -15.7616,-17.8159 -44.2446,-16.4561 -63.0308,-5.4914 -12.7101,1.4248 -26.8597,-8.3199 -40.8725,-7.5152"
           id="path3897" />
        <path
           sodipodi:nodetypes="cccccccccccc"
           style="fill:none;stroke:#ffffff;stroke-width:30;stroke-linecap:round;stroke-linejoin:bevel;stroke-miterlimit:4;stroke-opacity:1;stroke-dasharray:none;filter:url(#filter3926)"
           d="m 2421.1336,2045.1401 c 2.9829,-4.4349 8.425,-33.4537 1.7133,-22.5838 -11.5897,15.0567 -16.9866,50.7637 -25.6433,66.8925 -7.1419,14.0464 -15.2597,27.3503 -24.5412,40.0166 0.2704,14.2834 -3.845,29.404 -0.358,44.5702 3.2044,12.6758 4.6582,27.5634 0.2266,39.8917 -14.7983,-2.7087 -22.1182,12.7026 -35.3029,16.3185 -13.6593,1.9406 -19.3988,17.8455 -27.7039,26.9169 -5.5429,13.9772 -25.4016,11.4148 -37.887,16.1577 -16.0557,2.075 -32.3408,0.3361 -48.4935,0.9225 -2.8991,2.2638 -9.1425,2.3313 -8.5435,2.2623 -2.8875,8.3152 -9.9303,17.0618 -14.0839,26.022"
           id="path3899" />
        <path
           style="fill:none;stroke:#ffffff;stroke-width:30;stroke-linecap:round;stroke-linejoin:bevel;stroke-miterlimit:4;stroke-opacity:1;stroke-dasharray:none;filter:url(#filter3926)"
           d="m 2503.158,2534.458 c -1.7712,-19.1042 9.5246,-37.6693 15.3013,-56.5094 -1.9648,-19.5356 16.9071,-36.0542 35.5671,-25.8497 17.2727,-0.5995 33.8592,5.8776 52.3874,4.7399 12.1006,3.5484 23.0428,5.1867 29.8692,-7.4636 13.8743,6.3845 42.113,-12.3616 32.4846,-29.6008 -2.8636,-22.1133 12.9894,-40.57 22.6626,-59.0576 9.8199,-18.348 28.5552,-29.7092 39.6488,-46.4488 6.1881,-18.8455 25.6768,-35.4679 5.8124,-51.8537 -1.4891,-11.2217 22.203,7.9764 29.752,1.6431 23.1886,2.3266 45.1465,20.9772 68.8123,9.0152 15.31,-4.6258 31.2578,1.4031 44.8955,-0.5169 17.6929,7.9067 35.5793,14.7247 55.7611,8.9755 l 3.0088,0.2858 2.4431,0.911"
           id="path3901" />
      </g>
      <path
         transform="matrix(1.0933334,0,0,1.0933334,-243.0748,865.43304)"
         d="m 2953.6861,1187.7227 a 393.9595,393.9595 0 1 1 -787.919,0 393.9595,393.9595 0 1 1 787.919,0 z"
         sodipodi:ry="393.9595"
         sodipodi:rx="393.9595"
         sodipodi:cy="1187.7227"
         sodipodi:cx="2559.7266"
         id="path3004-1"
         style="fill:none;stroke:none;stroke-width:0.91463410999999994;stroke-opacity:1"
         sodipodi:type="arc" />
    </g>
    <g
       id="explosion_dense_00"
       inkscape:label="#g8470"
       transform="matrix(0.41478055,0,0,0.41478055,-1470.8078,-174.05189)"
       inkscape:export-xdpi="14.46"
       inkscape:export-ydpi="14.46">
      <path
         id="path8404"
         d="m 1615.6875,1620.5938 c -92.0734,11.2674 -183.3059,31.9823 -272.8437,54.5937 -38.054,23.8096 -72.3078,74.4939 -123.375,60.4063 -35.5417,-15.2978 -74.9843,-46.6125 -114.7412,-25.0445 -129.85413,26.8681 -253.97482,121.019 -286.30528,253.8108 -1.02842,55.7307 -0.9474,117.4635 -39.70357,162.0461 -30.95037,49.7544 -34.81793,109.2158 -47.5,164.6876 -26.07329,78.3128 -94.47574,139.8184 -97.40625,226.0624 -14.25834,131.7138 47.56526,262.2091 141.83564,351.5325 47.44404,73.055 24.14106,177.5489 92.75811,239.0925 73.56601,76.7537 182.80155,95.1213 281.65625,118.0938 49.0082,19.0516 87.5414,73.3896 145.5147,61.3579 36.4438,-4.2754 78.9781,1.0456 100.1416,34.9546 45.7823,46.6909 121.3894,63.5543 179.6115,30.0785 57.9185,-27.0091 118.6016,-72.0708 185.9197,-50.516 66.0436,11.7491 132.0892,-12.3955 185.3122,-50.5879 115.7721,-76.6435 178.0492,-206.0622 233.5628,-328.5059 29.2054,-56.076 77.7633,-102.536 137.875,-123.4062 45.0886,-27.6367 60.1497,-82.1449 63.9375,-131.6562 18.712,-117.7907 -11.2521,-238.368 -63.8125,-343.5626 -10.1508,-66.7095 27.1352,-136.326 -4.9062,-200.5 -28.4204,-86.401 -110.9728,-157.8769 -204.4063,-156.5624 -42.3266,-15.1999 -25.7285,-67.6303 -39.9695,-100.6746 -10.4587,-46.8128 -64.6795,-58.387 -105.7339,-53.2375 -49.9557,5.4829 -74.4429,-49.7954 -82.9216,-90.2755 -11.6718,-37.1183 -46.6799,-57.8248 -82.386,-66.4896 -58.1592,-21.7366 -119.7348,-36.3061 -182.114,-35.6978 z"
         style="fill:#990d00;fill-opacity:1;stroke:none;filter:url(#filter8466)" />
      <path
         id="path8407"
         d="m 1594.8125,1638.875 c -92.0801,3.0648 -135.1058,114.3427 -227.1563,117.4688 -57.7789,-0.47 -94.4528,52.7238 -143.1874,73.25 -67.7574,5.985 -105.8488,-78.5635 -175.1563,-66.1563 -36.8301,2.0068 -70.28725,29.8252 -73.4375,67.5 -13.44999,39.1405 -55.35277,62.9939 -95.40574,59.4071 -41.21655,18.1375 -34.59275,73.1787 -20.68801,107.5304 17.78039,44.9357 54.85941,97.9885 24.14396,145.8059 -29.85899,42.8885 -66.1139,87.8968 -62.12654,143.5371 0.42812,34.7213 -9.95114,76.3008 -47.37678,87.4617 -38.11515,16.988 -86.05587,38.8511 -89.73439,86.6328 -15.52417,77.1456 26.8851,149.7564 31.15056,225.7613 15.63358,56.6137 68.53124,94.3513 123.78694,106.2387 36.47755,18.3664 46.61511,64.2272 33.87249,100.4455 -5.4242,37.6297 12.88983,72.7641 34.03376,101.8358 14.17299,46.1436 -17.44201,105.4691 26.90625,141.0937 48.15607,49.3923 133.2432,41.9895 180.5,-4.5 50.5033,-20.7259 92.1364,27.5602 137.0937,41.375 45.2148,13.7675 104.9984,5.1679 135.6258,48.2683 8.6347,37.1564 30.2439,85.5862 75.7492,82.9504 103.3946,5.1083 191.2703,-57.1008 279.598,-101.1305 50.8281,-25.7108 102.2158,13.5929 153.5896,16.1931 56.0593,7.4299 94.3734,-43.6967 123.7008,-83.6078 41.9015,-60.0199 57.9801,-132.6407 69.3616,-203.5798 11.5288,-46.9699 49.4673,-78.4052 80.4767,-112.4069 46.7829,-57.6354 92.9396,-116.0369 145.7733,-168.2493 52.0867,-64.4056 46.8026,-155.7303 14.639,-227.8127 -19.5086,-48.9875 -47.9008,-98.4054 -38.7839,-153.1111 3.2702,-45.0855 -4.8428,-91.6693 -32.3752,-128.4045 -32.2546,-61.9277 -96.0772,-112.6208 -168.5609,-108.5152 -59.7816,-17.3915 -97.7004,-77.9566 -161.3163,-86.5053 -52.1694,-23.7056 -55.746,-87.3954 -79.2511,-132.2606 -21.3249,-41.3521 -50.4968,-96.8596 -105.1016,-93.2656 -46.9373,0.032 -86.4992,-30.0393 -110.9687,-68.0625 -10.392,-10.1367 -24.7539,-16.1979 -39.375,-15.1875 z"
         style="fill:#ff8122;fill-opacity:1;stroke:none;filter:url(#filter8458)" />
      <path
         id="path8410"
         d="m 1575.8438,1706.0312 c -84.7212,5.7182 -140.1602,79.6322 -186.0649,142.6341 -51.1653,54.7048 -132.3527,42.6932 -199.3727,37.5222 -91.6205,-0.975 -196.75926,37.4405 -234.31245,127.5625 -23.85168,67.6263 -21.82965,142.2762 -54.5,207.25 -27.11608,71.9046 -45.56194,153.2024 -106.77838,205.1095 -35.05887,30.2743 -47.67059,76.9568 -45.44037,121.828 1.68315,81.5715 49.99065,153.6298 109.47666,205.8761 36.88614,39.9657 56.73068,94.8049 50.62556,149.0745 4.80154,79.5991 46.59475,168.9561 129.52278,190.9557 56.2604,17.2323 113.9978,-7.9197 170.1442,-5.378 64.3578,18.9253 107.8326,81.5735 176.883,89.1121 56.3666,16.3964 108.7617,44.2738 161.5648,68.4069 77.7156,11.4089 131.521,-59.1566 200.908,-78.3598 74.3677,-18.0439 159.4044,-8.8082 222.2426,-60.1756 55.1311,-32.2661 88.285,-93.1184 90.1636,-156.4182 11.1562,-83.7907 71.086,-147.0695 120.7272,-210.7714 43.8972,-64.976 109.7347,-129.9158 99.5854,-215.166 -3.2439,-53.3431 -32.9433,-99.0574 -52.5,-146.9688 -16.6926,-54.9639 -1.8276,-112.1822 12.75,-165.4688 7.3983,-72.4105 -43.5523,-147.3692 -117.1876,-158.7187 -77.8628,-22.5699 -172.0397,-12.9535 -233.1857,-75.2113 -55.24,-72.7107 -69.3616,-178.3248 -153.7176,-227.0368 -47.4462,-31.4209 -104.8538,-46.4633 -161.5341,-45.6582 z"
         style="fill:#ffc96d;fill-opacity:1;stroke:none;filter:url(#filter8454)" />
      <path
         id="path8439"
         d="m 1606.8125,1743.3125 c -72.6828,20.1663 -119.0532,85.5238 -172.6534,133.9527 -40.7335,37.8984 -90.6282,79.3618 -149.4091,76.3286 -50.2619,-8.8467 -94.5109,-61.4326 -148.3438,-38.2188 -83.1501,51.1748 -94.2711,162.4437 -169.24995,221.5938 -56.2094,77.9705 -34.67131,193.1804 -110.5625,259.6562 -63.75343,56.7294 -104.02062,154.4643 -63.28125,235.6562 30.35226,74.8823 108.52542,115.221 145,185.4376 23.57077,63.0661 1.03319,146.0511 59.46875,193.4374 67.28875,47.8126 155.94145,-0.1549 226.28125,39.9688 46.9217,19.8453 79.9322,60.6439 122.2119,86.9419 73.5538,38.5887 157.6737,59.3069 240.4756,57.9643 49.266,-16.5425 72.3725,-77.0773 127.9435,-80.9988 77.0663,-16.7993 166.0071,11.4129 233.744,-39.5636 68.3338,-62.0335 68.8092,-162.1561 114.4039,-237.9896 23.0441,-46.1769 65.027,-77.7588 95.9986,-117.5188 38.1158,-56.6206 66.9683,-121.6364 77.3475,-189.0229 -6.9119,-59.7238 -41.8254,-113.5628 -40.0152,-174.7319 -12.4863,-54.2606 -27.6768,-112.9208 -2.5473,-166.2056 16.4539,-47.4538 -21.7307,-106.3697 -74.1875,-101.125 -69.676,-1.2274 -135.1229,-28.9003 -203.7187,-36.5312 -51.977,-17.9769 -75.5795,-72.621 -88.1099,-121.8375 -31.6219,-86.0891 -98.287,-166.72 -192.0327,-185.218 -9.4231,-1.599 -19.2481,-3.3265 -28.7637,-1.9758 z"
         style="fill:#e9e5be;fill-opacity:1;stroke:none;filter:url(#filter8442)" />
    </g>
    <g
       id="old_lightning3"
       inkscape:label="#g3770"
       transform="translate(901.05607,-1058.6399)"
       inkscape:export-filename="/home/vdods/files/sf/xuqrijbuh/trunk/resources/lightning3.png"
       inkscape:export-xdpi="8.1099997"
       inkscape:export-ydpi="8.1099997">
      <g
         id="g3720">
        <path
           id="path3616"
           d="m -751.42857,1678.0765 c 3.59719,10.1329 12.65761,6.8707 11.42857,14.2857 8.51607,10.7276 30.73038,16.3254 22.85714,28.5714 5.03905,8.9658 -5.43284,19.6942 0.19373,30.3578 -3.54886,10.0944 0.6246,15.5432 2.66342,21.0708 -1.32611,13.622 12.78561,24.889 22.85714,25.7143 9.6042,7.9518 19.53157,10.717 29.26776,17.1709 -9.89818,5.1608 14.63096,5.7467 7.8751,11.4005 5.0612,3.3978 24.55484,17.1238 25.71428,0 13.37275,2.0869 8.37557,17.2451 14.28572,22.8571 -3.65548,7.1712 -3.05912,10.5409 8.57142,14.2858 -4.87215,7.4166 18.33098,16.8498 25.38765,22.5152 -6.73591,4.7827 17.11032,6.4764 4.67925,14.7204 -5.83179,6.9478 -27.41027,19.8678 -17.27665,25.7143 7.29201,7.9572 12.08329,1.3051 23.63481,2.7643 12.65091,-1.3326 31.48255,-7.139 37.86066,5.7143 8.16593,10.2515 -4.47895,20.812 2.85714,25.7143 -6.40992,11.9063 0.0883,21.8826 -1.42857,24.2857 -1.94261,3.4938 9.12242,2.4451 4.28571,7.1429 5.10232,1.057 -0.12711,7.0545 11.42858,5.7143 -5.82815,8.1528 18.08501,-5.253 20.35714,-1.0715 5.8428,-1.3316 17.36544,2.5328 22.59282,5.2903 4.45503,7.6604 -2.00999,7.4933 2.95768,12.046 -0.0602,8.6059 0.6584,20.5152 9.59956,11.8582 11.18963,-1.496 23.96544,-13.1915 27.34994,-25.2659 7.64623,-7.5899 15.34333,4.0648 16.69643,12.2539 -5.67383,4.0391 9.09588,2.8197 3.30357,7.7461 4.7236,-6.4928 10.7387,19.6951 6.02678,10.2902 2.27042,6.3605 -0.78295,5.2254 -2.22023,9.8695 8.73563,4.0781 0.28513,16.888 -2.5377,24.1001 3.34549,6.4278 2.88495,17.8639 -4.12599,10.0259 -7.18148,9.0063 -11.88529,37.1822 -1.71005,33.8486 2.18076,12.0888 6.81028,15.5261 0.31465,20.4754 -17.28318,8.9441 -23.83216,29.6456 -34.26446,45.7207 -6.43256,5.0496 -1.11357,19.5724 3.92486,26.9378 -1.50661,-7.7134 10.74519,13.2371 11.735,13.0175"
           style="fill:none;stroke:#350879;stroke-width:20;stroke-linecap:butt;stroke-linejoin:miter;stroke-miterlimit:4;stroke-opacity:1;stroke-dasharray:none;filter:url(#filter3712)" />
        <path
           style="fill:none;stroke:#dddddd;stroke-width:10;stroke-linecap:butt;stroke-linejoin:miter;stroke-miterlimit:4;stroke-opacity:1;stroke-dasharray:none;filter:url(#filter3708)"
           d="m -751.42857,1678.0765 c 3.59719,10.1329 12.65761,6.8707 11.42857,14.2857 8.51607,10.7276 30.73038,16.3254 22.85714,28.5714 5.03905,8.9658 -5.43284,19.6942 0.19373,30.3578 -3.54886,10.0944 0.6246,15.5432 2.66342,21.0708 -1.32611,13.622 12.78561,24.889 22.85714,25.7143 9.6042,7.9518 19.53157,10.717 29.26776,17.1709 -9.89818,5.1608 14.63096,5.7467 7.8751,11.4005 5.0612,3.3978 24.55484,17.1238 25.71428,0 13.37275,2.0869 8.37557,17.2451 14.28572,22.8571 -3.65548,7.1712 -3.05912,10.5409 8.57142,14.2858 -4.87215,7.4166 18.33098,16.8498 25.38765,22.5152 -6.73591,4.7827 17.11032,6.4764 4.67925,14.7204 -5.83179,6.9478 -27.41027,19.8678 -17.27665,25.7143 7.29201,7.9572 12.08329,1.3051 23.63481,2.7643 12.65091,-1.3326 31.48255,-7.139 37.86066,5.7143 8.16593,10.2515 -4.47895,20.812 2.85714,25.7143 -6.40992,11.9063 0.0883,21.8826 -1.42857,24.2857 -1.94261,3.4938 9.12242,2.4451 4.28571,7.1429 5.10232,1.057 -0.12711,7.0545 11.42858,5.7143 -5.82815,8.1528 18.08501,-5.253 20.35714,-1.0715 5.8428,-1.3316 17.36544,2.5328 22.59282,5.2903 4.45503,7.6604 -2.00999,7.4933 2.95768,12.046 -0.0602,8.6059 0.6584,20.5152 9.59956,11.8582 11.18963,-1.496 23.96544,-13.1915 27.34994,-25.2659 7.64623,-7.5899 15.34333,4.0648 16.69643,12.2539 -5.67383,4.0391 9.09588,2.8197 3.30357,7.7461 4.7236,-6.4928 10.7387,19.6951 6.02678,10.2902 2.27042,6.3605 -0.78295,5.2254 -2.22023,9.8695 8.73563,4.0781 0.28513,16.888 -2.5377,24.1001 3.34549,6.4278 2.88495,17.8639 -4.12599,10.0259 -7.18148,9.0063 -11.88529,37.1822 -1.71005,33.8486 2.18076,12.0888 6.81028,15.5261 0.31465,20.4754 -17.28318,8.9441 -23.83216,29.6456 -34.26446,45.7207 -6.43256,5.0496 -1.11357,19.5724 3.92486,26.9378 -1.50661,-7.7134 10.74519,13.2371 11.735,13.0175"
           id="path3607" />
      </g>
      <rect
         inkscape:label="#rect3740"
         y="1576.6566"
         x="-836.40631"
         height="712.10712"
         width="710.13727"
         id="lightning_back"
         style="fill:none;stroke:none" />
    </g>
    <g
       id="old_lightning2"
       inkscape:label="#g3764"
       transform="translate(775.79713,-218.19294)"
       inkscape:export-filename="/home/vdods/files/sf/xuqrijbuh/trunk/resources/lightning2.png"
       inkscape:export-xdpi="8.1099997"
       inkscape:export-ydpi="8.1099997">
      <g
         id="g3736">
        <path
           id="path3659"
           d="m -701.04587,2158.4792 c -2.81473,7.2522 9.22771,-21.2064 19.1929,-7.071 9.16726,9.2075 22.82766,10.847 27.27412,-2.0204 4.90383,-11.0938 12.2244,-12.313 18.18275,-24.2436 0.65376,-13.1741 2.57672,-15.5703 17.17259,-8.0812 13.90052,4.0547 29.81944,14.1741 39.39595,-1.0102 13.40096,-0.2364 26.67952,-29.3837 40.4061,-14.1421 11.66146,6.6745 24.97055,7.9081 20.20305,20.203 4.29974,23.4396 31.82522,-11.6247 41.41626,-20.203 16.15515,-10.8392 34.5023,-27.1014 43.33685,-42.1675 21.91464,-0.7443 39.18177,-18.7884 57.6784,-4.2995 12.75965,5.966 26.16271,15.9998 38.3858,6.0609 8.06953,-11.4086 0.67083,-20.8377 0,-29.2944 -2.58207,-7.0673 -23.09456,-16.0743 -10.6017,-28.5304 11.6984,-19.9129 31.77379,-40.1284 48.98749,-48.2412 16.39295,2.421 23.93317,-12.4784 36.3655,-18.1828 13.35035,4.0616 24.94321,5.0463 38.38579,10.1015 10.17118,6.8281 20.11226,6.6808 33.33504,7.0711 11.6237,5.7737 23.26731,-3.106 30.30457,-3.0305 15.53597,2.2201 17.30341,-11.0085 4.04061,-17.1725 l 0,-1.0102"
           style="fill:none;stroke:#350879;stroke-width:20;stroke-linecap:butt;stroke-linejoin:miter;stroke-miterlimit:4;stroke-opacity:1;stroke-dasharray:none;filter:url(#filter3688)" />
        <path
           style="fill:none;stroke:#d1d1d1;stroke-width:10;stroke-linecap:butt;stroke-linejoin:miter;stroke-miterlimit:4;stroke-opacity:1;stroke-dasharray:none;filter:url(#filter3684)"
           d="m -701.04587,2158.4792 c -2.81473,7.2522 9.22771,-21.2064 19.1929,-7.071 9.16726,9.2075 22.82766,10.847 27.27412,-2.0204 4.90383,-11.0938 12.2244,-12.313 18.18275,-24.2436 0.65376,-13.1741 2.57672,-15.5703 17.17259,-8.0812 13.90052,4.0547 29.81944,14.1741 39.39595,-1.0102 13.40096,-0.2364 26.67952,-29.3837 40.4061,-14.1421 11.66146,6.6745 24.97055,7.9081 20.20305,20.203 4.29974,23.4396 31.82522,-11.6247 41.41626,-20.203 16.15515,-10.8392 34.5023,-27.1014 43.33685,-42.1675 21.91464,-0.7443 39.18177,-18.7884 57.6784,-4.2995 12.75965,5.966 26.16271,15.9998 38.3858,6.0609 8.06953,-11.4086 0.67083,-20.8377 0,-29.2944 -2.58207,-7.0673 -23.09456,-16.0743 -10.6017,-28.5304 11.6984,-19.9129 31.77379,-40.1284 48.98749,-48.2412 16.39295,2.421 23.93317,-12.4784 36.3655,-18.1828 13.35035,4.0616 24.94321,5.0463 38.38579,10.1015 10.17118,6.8281 20.11226,6.6808 33.33504,7.0711 11.6237,5.7737 23.26731,-3.106 30.30457,-3.0305 15.53597,2.2201 17.30341,-11.0085 4.04061,-17.1725 l 0,-1.0102"
           id="path3642" />
      </g>
      <rect
         style="fill:none;stroke:none"
         id="rect3742"
         width="710.13727"
         height="712.10712"
         x="-836.40631"
         y="1576.6566"
         inkscape:label="#rect3740" />
    </g>
    <g
       id="old_lightning1"
       inkscape:label="#g3756"
       transform="translate(1830.3965,-238.39598)"
       inkscape:export-filename="/home/vdods/files/sf/xuqrijbuh/trunk/resources/lightning1.png"
       inkscape:export-xdpi="8.1099997"
       inkscape:export-ydpi="8.1099997">
      <g
         transform="matrix(0.98002881,0.19885555,-0.19885555,0.98002881,390.50666,172.21143)"
         id="g3730">
        <path
           id="path3661"
           d="m -511.13719,1635.2202 c -1.16457,-1.1955 -14.48895,30.0389 -21.2132,42.4264 -1.84089,7.3354 3.69552,26.5995 -13.13198,19.1929 -9.83558,3.2774 -16.99544,8.1016 -28.28428,7.0711 -24.20991,-6.9243 -7.76811,12.4129 -12.12183,21.2132 -4.65726,15.9454 -12.52924,24.473 -23.57262,40.3988 -9.20285,10.6548 -30.64438,38.9337 -25.92485,51.5251 4.16409,3.757 15.09942,10.3719 17.17259,16.1624 11.3676,-0.2051 25.38628,5.2104 31.31473,8.0812 -9.77202,10.6373 -7.48899,37.2845 -24.24366,37.3757 -7.28289,-0.4393 -16.38236,9.0158 -24.24366,15.1523 -7.20327,6.9763 -10.79028,16.946 -18.18275,22.2233 -4.27012,3.8997 -18.46114,-2.2324 -25.25381,3.0305 -9.64825,14.3913 6.63085,25.2185 14.17278,31.7891 17.71835,12.1674 -9.98928,9.3145 -14.17278,21.749 -16.97986,4.5561 -17.12114,6.6344 -31.31473,20.203 -4.18093,2.1957 -15.2106,1.6113 -20.20305,6.0609 -3.33812,5.8337 -11.21415,13.2205 -15.15229,22.2234 -7.32605,7.1169 -11.80414,27.5563 -19.1929,25.2538 -9.10014,-5.4906 -30.36925,-14.2027 -36.36549,-3.0305 -3.42188,3.1906 -9.43091,7.017 -11.11168,10.1016"
           style="fill:none;stroke:#350879;stroke-width:20;stroke-linecap:butt;stroke-linejoin:miter;stroke-miterlimit:4;stroke-opacity:1;stroke-dasharray:none;filter:url(#filter3716)" />
        <path
           style="fill:none;stroke:#d1d1d1;stroke-width:10;stroke-linecap:butt;stroke-linejoin:miter;stroke-miterlimit:4;stroke-opacity:1;stroke-dasharray:none;filter:url(#filter3680)"
           d="m -511.13719,1635.2202 c -1.16457,-1.1955 -14.48895,30.0389 -21.2132,42.4264 -1.84089,7.3354 3.69552,26.5995 -13.13198,19.1929 -9.83558,3.2774 -16.99544,8.1016 -28.28428,7.0711 -24.20991,-6.9243 -7.76811,12.4129 -12.12183,21.2132 -4.65726,15.9454 -12.52924,24.473 -23.57262,40.3988 -9.20285,10.6548 -30.64438,38.9337 -25.92485,51.5251 4.16409,3.757 15.09942,10.3719 17.17259,16.1624 11.3676,-0.2051 25.38628,5.2104 31.31473,8.0812 -9.77202,10.6373 -7.48899,37.2845 -24.24366,37.3757 -7.28289,-0.4393 -16.38236,9.0158 -24.24366,15.1523 -7.20327,6.9763 -10.79028,16.946 -18.18275,22.2233 -4.27012,3.8997 -18.46114,-2.2324 -25.25381,3.0305 -9.64825,14.3913 6.63085,25.2185 14.17278,31.7891 17.71835,12.1674 -9.98928,9.3145 -14.17278,21.749 -16.97986,4.5561 -17.12114,6.6344 -31.31473,20.203 -4.18093,2.1957 -15.2106,1.6113 -20.20305,6.0609 -3.33812,5.8337 -11.21415,13.2205 -15.15229,22.2234 -7.32605,7.1169 -11.80414,27.5563 -19.1929,25.2538 -9.10014,-5.4906 -30.36925,-14.2027 -36.36549,-3.0305 -3.42188,3.1906 -9.43091,7.017 -11.11168,10.1016"
           id="path3644" />
        <path
           id="path3663"
           d="m -653.5687,1962.5096 c 6.43091,5.3089 7.38289,12.2136 12.12183,18.1828 9.70099,8.3329 -0.73451,20.4111 6.06092,31.3147 1.94599,5.8884 7.60034,18.5194 16.16244,23.2335 5.94058,1.7813 2.43015,12.8957 6.06091,19.1929 -2.12176,7.9106 9.34526,11.405 11.11168,16.1624 10.29941,1.4079 9.89178,15.4319 10.10153,21.2133 -2.87504,11.3291 5.33329,25.1399 23.23351,31.3147 16.98263,13.3395 37.04029,20.9679 55.78426,22.0837 -2.8963,9.4109 -0.44728,19.7643 -10.3274,27.4138 0.0516,10.0229 -1.13111,25.0209 -18.18274,19.1929 -6.98259,3.5786 -10.484,15.2006 -10.10153,22.2233 0.94507,6.7759 13.02896,13.2178 18.18275,18.1828"
           style="fill:none;stroke:#350879;stroke-width:20;stroke-linecap:butt;stroke-linejoin:miter;stroke-miterlimit:4;stroke-opacity:1;stroke-dasharray:none;filter:url(#filter3676)" />
        <path
           style="fill:none;stroke:#d1d1d1;stroke-width:10;stroke-linecap:butt;stroke-linejoin:miter;stroke-miterlimit:4;stroke-opacity:1;stroke-dasharray:none;filter:url(#filter3672)"
           d="m -653.5687,1962.5096 c 6.43091,5.3089 7.38289,12.2136 12.12183,18.1828 9.70099,8.3329 -0.73451,20.4111 6.06092,31.3147 1.94599,5.8884 7.60034,18.5194 16.16244,23.2335 5.94058,1.7813 2.43015,12.8957 6.06091,19.1929 -2.12176,7.9106 9.34526,11.405 11.11168,16.1624 10.29941,1.4079 9.89178,15.4319 10.10153,21.2133 -2.87504,11.3291 5.33329,25.1399 23.23351,31.3147 16.98263,13.3395 37.04029,20.9679 55.78426,22.0837 -2.8963,9.4109 -0.44728,19.7643 -10.3274,27.4138 0.0516,10.0229 -1.13111,25.0209 -18.18274,19.1929 -6.98259,3.5786 -10.484,15.2006 -10.10153,22.2233 0.94507,6.7759 13.02896,13.2178 18.18275,18.1828"
           id="path3648" />
      </g>
      <rect
         inkscape:label="#rect3740"
         y="1576.6566"
         x="-836.40631"
         height="712.10712"
         width="710.13727"
         id="rect3744"
         style="fill:none;stroke:none" />
    </g>
    <g
       id="old_lightning0"
       inkscape:label="#g3748"
       transform="translate(1655.64,-1025.3048)"
       inkscape:export-filename="/home/vdods/files/sf/xuqrijbuh/trunk/resources/lightning0.png"
       inkscape:export-xdpi="8.1099997"
       inkscape:export-ydpi="8.1099997">
      <g
         transform="translate(17.172593,-37.375644)"
         id="g3724">
        <path
           id="path3655"
           d="m -646.49763,1644.3116 c 8.36744,9.6604 12.23585,13.6664 21.2132,22.2233 3.87808,7.2752 6.4933,19.6163 7.07107,26.264 -2.02238,22.3238 18.75627,-5.0208 27.27412,-12.1218 2.55247,-0.1468 21.67062,-10.1533 18.18275,3.8412 2.04679,10.1665 -1.78229,25.4254 10.10152,27.4735 16.13252,7.0101 34.14313,6.6022 50.50763,9.0914 9.69871,-7.9109 38.20263,-5.3491 23.2335,10.1015 -2.30176,10.3467 -13.49783,21.9057 -15.15228,28.2843 1.71149,7.9002 11.29202,14.2857 14.42624,17.8354 3.07805,7.2658 20.0966,9.5638 26.99001,18.53 4.96171,10.9541 5.47986,23.2633 5.05077,39.396 0.028,10.5557 -7.8603,19.923 -12.12183,29.2944 -2.94349,9.4418 -9.32806,19.4918 -5.05077,26.264"
           style="fill:none;stroke:#350879;stroke-width:20;stroke-linecap:butt;stroke-linejoin:miter;stroke-miterlimit:4;stroke-opacity:1;stroke-dasharray:none;filter:url(#filter3704)" />
        <path
           id="path3657"
           d="m -199.00005,1819.068 c 5.19659,5.831 -15.58928,-1.2515 -19.1929,3.0304 -15.13018,-4.2467 -24.0899,-15.5779 -37.37564,-21.2132 -14.45621,-8.0428 -23.52793,-5.0558 -35.35534,-6.0609 -19.87867,-7.094 -30.29189,3.7806 -48.48733,-4.0406 -7.36689,-2.6003 -8.72007,-8.3237 -17.17259,-11.1117 -8.48134,-2.2737 -7.72107,9.1787 -15.15229,14.1422 -13.79535,2.9134 -23.84816,6.9496 -36.36549,5.0507 -6.44259,-3.2011 -15.2037,-12.0791 -20.20305,-8.0812 -6.94987,1.3555 -12.51361,6.7915 -21.89369,9.7677 -3.94267,0.9568 -4.89118,3.6507 -8.41089,1.344"
           style="fill:none;stroke:#350879;stroke-width:20;stroke-linecap:butt;stroke-linejoin:miter;stroke-miterlimit:4;stroke-opacity:1;stroke-dasharray:none;filter:url(#filter3700)" />
        <path
           style="fill:none;stroke:#d1d1d1;stroke-width:10;stroke-linecap:butt;stroke-linejoin:miter;stroke-miterlimit:4;stroke-opacity:1;stroke-dasharray:none;filter:url(#filter3696)"
           d="m -646.49763,1644.3116 c 8.36744,9.6604 12.23585,13.6664 21.2132,22.2233 3.87808,7.2752 6.4933,19.6163 7.07107,26.264 -2.02238,22.3238 18.75627,-5.0208 27.27412,-12.1218 2.55247,-0.1468 21.67062,-10.1533 18.18275,3.8412 2.04679,10.1665 -1.78229,25.4254 10.10152,27.4735 16.13252,7.0101 34.14313,6.6022 50.50763,9.0914 9.69871,-7.9109 38.20263,-5.3491 23.2335,10.1015 -2.30176,10.3467 -13.49783,21.9057 -15.15228,28.2843 1.71149,7.9002 11.29202,14.2857 14.42624,17.8354 3.07805,7.2658 20.0966,9.5638 26.99001,18.53 4.96171,10.9541 5.47986,23.2633 5.05077,39.396 0.028,10.5557 -7.8603,19.923 -12.12183,29.2944 -2.94349,9.4418 -9.32806,19.4918 -5.05077,26.264"
           id="path3638" />
        <path
           style="fill:none;stroke:#d1d1d1;stroke-width:10;stroke-linecap:butt;stroke-linejoin:miter;stroke-miterlimit:4;stroke-opacity:1;stroke-dasharray:none;filter:url(#filter3692)"
           d="m -199.00005,1819.068 c 5.19659,5.831 -15.58928,-1.2515 -19.1929,3.0304 -15.13018,-4.2467 -24.0899,-15.5779 -37.37564,-21.2132 -14.45621,-8.0428 -23.52793,-5.0558 -35.35534,-6.0609 -19.87867,-7.094 -30.29189,3.7806 -48.48733,-4.0406 -7.36689,-2.6003 -8.72007,-8.3237 -17.17259,-11.1117 -8.48134,-2.2737 -7.72107,9.1787 -15.15229,14.1422 -13.79535,2.9134 -23.84816,6.9496 -36.36549,5.0507 -6.44259,-3.2011 -15.2037,-12.0791 -20.20305,-8.0812 -6.94987,1.3555 -12.51361,6.7915 -21.89369,9.7677 -3.94267,0.9568 -4.89118,3.6507 -8.41089,1.344"
           id="path3640" />
      </g>
      <rect
         style="fill:none;stroke:none"
         id="rect3746"
         width="710.13727"
         height="712.10712"
         x="-836.40631"
         y="1576.6566"
         inkscape:label="#rect3740" />
    </g>
    <g
       id="lightning0"
       inkscape:label="#g4106"
       inkscape:export-filename="/home/vdods/files/sf/xuqrijbuh/trunk/resources/lightning0.png"
       inkscape:export-xdpi="6.6900001"
       inkscape:export-ydpi="6.6900001">
      <path
         transform="matrix(1.0933334,0,0,1.0933334,-236.07945,-122.04166)"
         d="m 2953.6861,1187.7227 a 393.9595,393.9595 0 1 1 -787.919,0 393.9595,393.9595 0 1 1 787.919,0 z"
         sodipodi:ry="393.9595"
         sodipodi:rx="393.9595"
         sodipodi:cy="1187.7227"
         sodipodi:cx="2559.7266"
         id="path3004"
         style="fill:none;stroke:none;stroke-width:0.91463410999999994;stroke-opacity:1"
         sodipodi:type="arc" />
      <g
         transform="translate(0,6.7932291)"
         id="g3997">
        <path
           sodipodi:nodetypes="cccccccccccc"
           id="path3784"
           d="m 2194.8595,1043.8769 c 28.6377,9.0858 76.8312,-14.2948 103.8893,-12.1375 22.008,-3.5973 47.032,-26.2017 65.6433,-21.6256 -6.0662,30.288 19.6992,33.3241 24.851,63.3563 20.2273,19.4656 47.2456,26.8384 74.7191,29.5189 38.0709,11.0418 72.326,31.8055 109.3235,45.9947 26.1942,18.1078 52.4932,9.2891 79.4082,3.8454 26.0643,1.1712 56.7917,3.6113 72.7864,27.3279 21.1983,21.4286 37.5857,46.9676 61.3417,65.8983 21.5289,18.932 46.2348,32.0214 73.5033,40.1811 23.8189,29.5507 42.3651,-18.7396 64.2575,-27.2267 11.84,-4.9366 -5.5322,-38.998 5.6677,-42.5987"
           style="fill:none;stroke:#320050;stroke-width:80;stroke-linecap:round;stroke-linejoin:bevel;stroke-miterlimit:4;stroke-opacity:1;stroke-dasharray:none;filter:url(#filter3947)" />
        <path
           sodipodi:nodetypes="ccccccccccccc"
           id="path3792"
           d="m 2347.5945,1021.2495 c 11.254,-5.7295 30.0741,-46.72769 39.1921,-54.89634 5.8654,-5.98683 14.0522,-13.92344 17.626,-19.12898 1.6389,5.127 2.5884,-5.59312 5.5342,-0.0562 3.2775,-0.35015 6.3778,-8.20374 9.1951,-2.6441 7.2324,-4.56624 15.5571,-7.12713 24.4182,-8.20408 6.103,-0.59386 14.9832,-6.6805 18.4387,-3.52132 9.1302,-3.07824 19.069,-5.69485 23.0947,-15.58846 7.2882,-5.89607 12.2025,-13.94141 17.7558,-20.50735 4.3795,-1.19671 4.1831,-7.07874 7.7295,-10.30228 -1.13,-4.03403 -4.2832,-6.9976 -2.7509,-10.18377 -3.2163,-3.41202 2.8105,-5.42133 -1.7967,-5.17942 -0.648,-0.71649 -3.4074,-66.85126 -2.8734,-67.57658"
           style="fill:none;stroke:#320050;stroke-width:80;stroke-linecap:round;stroke-linejoin:bevel;stroke-miterlimit:4;stroke-opacity:1;stroke-dasharray:none;filter:url(#filter3947)" />
        <path
           sodipodi:nodetypes="cccccccccc"
           id="path3801"
           d="m 2602.1529,1148.5287 c -13.2018,10.5589 -12.1887,65.9695 -19.909,80.28 -8.5404,26.1796 -24.4225,48.9174 -38.4561,72.2311 0.3719,12.3265 2.0045,28.0998 14.2535,36.9977 11.2858,6.4784 22.5114,15.605 34.9814,18.8602 10.7524,7.462 3.0503,25.9721 18.1915,31.0557 13.1177,13.9185 25.3704,26.6157 36.0088,41.6723 20.1958,9.608 34.7438,27.3726 53.9249,38.5153 9.4335,4.93 20.2189,15.9637 33.0654,20.903 14.439,0.9211 4.7423,44.5846 12.1895,46.9792"
           style="fill:none;stroke:#320050;stroke-width:80;stroke-linecap:round;stroke-linejoin:bevel;stroke-miterlimit:4;stroke-opacity:1;stroke-dasharray:none;filter:url(#filter3947)" />
        <path
           style="fill:none;stroke:#ffffff;stroke-width:30;stroke-linecap:round;stroke-linejoin:bevel;stroke-miterlimit:4;stroke-opacity:1;stroke-dasharray:none;filter:url(#filter3926)"
           d="m 2194.8595,1043.8769 c 28.6377,9.0858 76.8312,-14.2948 103.8893,-12.1375 22.008,-3.5973 47.032,-26.2017 65.6433,-21.6256 -6.0662,30.288 19.6992,33.3241 24.851,63.3563 20.2273,19.4656 47.2456,26.8384 74.7191,29.5189 38.0709,11.0418 72.326,31.8055 109.3235,45.9947 26.1942,18.1078 52.4932,9.2891 79.4082,3.8454 26.0643,1.1712 56.7917,3.6113 72.7864,27.3279 21.1983,21.4286 37.5857,46.9676 61.3417,65.8983 21.5289,18.932 46.2348,32.0214 73.5033,40.1811 23.8189,29.5507 42.3651,-18.7396 64.2575,-27.2267 11.84,-4.9366 -5.5322,-38.998 5.6677,-42.5987"
           id="path3887"
           sodipodi:nodetypes="cccccccccccc" />
        <path
           style="fill:none;stroke:#ffffff;stroke-width:30;stroke-linecap:round;stroke-linejoin:bevel;stroke-miterlimit:4;stroke-opacity:1;stroke-dasharray:none;filter:url(#filter3926)"
           d="m 2347.5945,1021.2495 c 11.254,-5.7295 30.0741,-46.72769 39.1921,-54.89634 5.8654,-5.98683 14.0522,-13.92344 17.626,-19.12898 1.6389,5.127 2.5884,-5.59312 5.5342,-0.0562 3.2775,-0.35015 6.3778,-8.20374 9.1951,-2.6441 7.2324,-4.56624 15.5571,-7.12713 24.4182,-8.20408 6.103,-0.59386 14.9832,-6.6805 18.4387,-3.52132 9.1302,-3.07824 19.069,-5.69485 23.0947,-15.58846 7.2882,-5.89607 12.2025,-13.94141 17.7558,-20.50735 4.3795,-1.19671 4.1831,-7.07874 7.7295,-10.30228 -1.13,-4.03403 -4.2832,-6.9976 -2.7509,-10.18377 -3.2163,-3.41202 2.8105,-5.42133 -1.7967,-5.17942 -0.648,-0.71649 -3.4074,-66.85126 -2.8734,-67.57658"
           id="path3889"
           sodipodi:nodetypes="ccccccccccccc" />
        <path
           style="fill:none;stroke:#ffffff;stroke-width:30;stroke-linecap:round;stroke-linejoin:bevel;stroke-miterlimit:4;stroke-opacity:1;stroke-dasharray:none;filter:url(#filter3926)"
           d="m 2599.3245,1159.8424 c -13.2018,10.5589 -9.3603,54.6558 -17.0806,68.9663 -8.5404,26.1796 -24.4225,48.9174 -38.4561,72.2311 0.3719,12.3265 2.0045,28.0998 14.2535,36.9977 11.2858,6.4784 22.5114,15.605 34.9814,18.8602 10.7524,7.462 3.0503,25.9721 18.1915,31.0557 13.1177,13.9185 25.3704,26.6157 36.0088,41.6723 20.1958,9.608 34.7438,27.3726 53.9249,38.5153 9.4335,4.93 20.2189,15.9637 33.0654,20.903 14.439,0.9211 4.7423,44.5846 12.1895,46.9792"
           id="path3891"
           sodipodi:nodetypes="cccccccccc" />
      </g>
    </g>
    <g
       id="lightning1"
       inkscape:label="#g4098"
       inkscape:export-filename="/home/vdods/files/sf/xuqrijbuh/trunk/resources/lightning1.png"
       inkscape:export-xdpi="6.6900001"
       inkscape:export-ydpi="6.6900001">
      <g
         transform="translate(21.213166,-18.308931)"
         id="g4005">
        <path
           id="path3805"
           d="m 3648.671,803.4606 c 6.8013,20.32429 -15.1121,38.67456 -20.1796,53.08167 -10.5744,21.73851 -27.2625,41.00203 -38.0835,62.56482 21.309,21.14354 -2.2655,43.37998 -11.361,65.69138 -9.1823,20.19833 -18.4216,43.56663 -39.6081,55.88243 -14.6147,19.8269 -41.0188,33.4108 -39.78,61.276 0.6205,23.332 -31.5105,49.2877 3.5504,64.2019 18.433,4.0272 20.1987,27.8368 32.4764,38.8847 2.8649,28.5369 -25.9257,48.4564 -43.1095,68.0546 -19.2002,17.7885 -33.1564,36.8975 -50.8024,54.9196 -14.7005,24.3743 -36.7887,42.5609 -49.0825,67.4312 -9.7657,18.2342 -12.1427,58.2907 -39.3809,53.9495 -8.8686,-4.4886 -12.0414,3.7899 -18.5947,4.6004"
           style="fill:none;stroke:#320050;stroke-width:80;stroke-linecap:round;stroke-linejoin:bevel;stroke-miterlimit:4;stroke-opacity:1;stroke-dasharray:none;filter:url(#filter3947)" />
        <path
           id="path3809"
           d="m 3529.877,1227.7247 c -6.667,17.8571 19.7836,25.0592 26.6925,38.1503 8.4837,7.0011 15.893,14.1956 24.9648,18.3383 2.6597,8.2539 25.4401,12.9205 37.2671,16.4683 13.4419,9.0702 28.4343,13.2357 44.6828,14.044 10.5897,6.2297 23.7775,7.8882 32.8581,16.1447 11.4958,7.9264 14.3741,22.8612 19.3319,34.71 10.3223,9.2672 13.7502,23.0616 12.2724,36.5128 -0.7063,12.1862 -17.7461,21.8719 -15.1571,32.544 0.7486,5.8844 -4.9588,16.1858 -0.4074,25.9722 0.7153,11.3317 -3.0492,22.3417 6.3771,31.9258 -1.9584,13.583 16.993,11.881 14.1476,22.9433 5.4336,3.2035 1.1268,9.6941 6.2739,12.0595"
           style="fill:none;stroke:#320050;stroke-width:80;stroke-linecap:round;stroke-linejoin:bevel;stroke-miterlimit:4;stroke-opacity:1;stroke-dasharray:none;filter:url(#filter3947)" />
        <path
           style="fill:none;stroke:#ffffff;stroke-width:30;stroke-linecap:round;stroke-linejoin:bevel;stroke-miterlimit:4;stroke-opacity:1;stroke-dasharray:none;filter:url(#filter3926)"
           d="m 3648.671,803.4606 c 6.8013,20.32429 -15.1121,38.67456 -20.1796,53.08167 -10.5744,21.73851 -27.2625,41.00203 -38.0835,62.56482 21.309,21.14354 -2.2655,43.37998 -11.361,65.69138 -9.1823,20.19833 -18.4216,43.56663 -39.6081,55.88243 -14.6147,19.8269 -41.0188,33.4108 -39.78,61.276 0.6205,23.332 -31.5105,49.2877 3.5504,64.2019 18.433,4.0272 20.1987,27.8368 32.4764,38.8847 2.8649,28.5369 -25.9257,48.4564 -43.1095,68.0546 -19.2002,17.7885 -33.1564,36.8975 -50.8024,54.9196 -14.7005,24.3743 -36.7887,42.5609 -49.0825,67.4312 -9.7657,18.2342 -12.1427,58.2907 -39.3809,53.9495 -8.8686,-4.4886 -12.0414,3.7899 -18.5947,4.6004"
           id="path3893" />
        <path
           style="fill:none;stroke:#ffffff;stroke-width:30;stroke-linecap:round;stroke-linejoin:bevel;stroke-miterlimit:4;stroke-opacity:1;stroke-dasharray:none;filter:url(#filter3926)"
           d="m 3529.877,1227.7247 c -6.667,17.8571 19.7836,25.0592 26.6925,38.1503 8.4837,7.0011 15.893,14.1956 24.9648,18.3383 2.6597,8.2539 25.4401,12.9205 37.2671,16.4683 13.4419,9.0702 28.4343,13.2357 44.6828,14.044 10.5897,6.2297 23.7775,7.8882 32.8581,16.1447 11.4958,7.9264 14.3741,22.8612 19.3319,34.71 10.3223,9.2672 13.7502,23.0616 12.2724,36.5128 -0.7063,12.1862 -17.7461,21.8719 -15.1571,32.544 0.7486,5.8844 -4.9588,16.1858 -0.4074,25.9722 0.7153,11.3317 -3.0492,22.3417 6.3771,31.9258 -1.9584,13.583 16.993,11.881 14.1476,22.9433 5.4336,3.2035 1.1268,9.6941 6.2739,12.0595"
           id="path3895" />
      </g>
      <path
         transform="matrix(1.0933334,0,0,1.0933334,759.52677,-151.38653)"
         d="m 2953.6861,1187.7227 a 393.9595,393.9595 0 1 1 -787.919,0 393.9595,393.9595 0 1 1 787.919,0 z"
         sodipodi:ry="393.9595"
         sodipodi:rx="393.9595"
         sodipodi:cy="1187.7227"
         sodipodi:cx="2559.7266"
         id="path3004-7"
         style="fill:none;stroke:none;stroke-width:0.91463410999999994;stroke-opacity:1"
         sodipodi:type="arc" />
    </g>
    <g
       id="lightning3"
       inkscape:label="#g4126"
       inkscape:export-filename="/home/vdods/files/sf/xuqrijbuh/trunk/resources/lightning3.png"
       inkscape:export-xdpi="6.6900001"
       inkscape:export-ydpi="6.6900001">
      <g
         transform="translate(2.8284156,15.55632)"
         id="g4011">
        <path
           sodipodi:nodetypes="ccccccccc"
           id="path3835"
           d="m 3221.5785,2237.4732 c 33.2611,14.6606 71.8174,21.5576 104.7313,9.1161 39.7109,4.1549 58.5406,-55.1492 97.4717,-38.0705 39.3091,12.0468 63.6593,47.5265 96.7896,64.5486 26.3831,-23.395 57.1893,0.4626 85.7184,5.0235 19.8444,-1.4168 62.4726,-18.6621 48.9491,19.4529 -13.1107,38.5949 8.0553,76.9083 35.3639,103.5694 29.2531,15.7185 56.3587,41.1413 91.1553,36.3932 11.5028,8.2344 25.5682,11.9802 36.6188,20.5841"
           style="fill:none;stroke:#320050;stroke-width:80;stroke-linecap:round;stroke-linejoin:bevel;stroke-miterlimit:4;stroke-opacity:1;stroke-dasharray:none;filter:url(#filter3947)" />
        <path
           id="path3839"
           d="m 3408.2546,2209.1889 c 9.8728,-11.8315 5.9506,-28.8546 9.0606,-43.0218 2.2026,-13.4731 11.8994,-23.6948 15.2127,-37.0409 5.7577,-15.5 5.5425,-31.6129 12.0075,-46.3235 -5.8724,-12.6614 7.7036,-30.2211 18.0788,-36.0343 12.3833,-6.2708 16.2462,-24.3755 28.0824,-31.8941 10.4789,-11.0532 4.7245,-25.9253 -8.5082,-30.1611 -2.2076,-17.0863 -16.6484,-22.4654 -29.8587,-30.2342 -11.8744,-10.8184 -28.1741,-18.106 -35.4022,-32.8998 -5.7035,-15.0135 -3.2771,-20.0896 -4.8362,-33.3928 -3.1229,-10.6925 -1.9309,-9.1695 -1.2609,-21.9731 1.7306,-7.7168 5.4836,-14.7487 8.738,-21.8915"
           style="fill:none;stroke:#320050;stroke-width:80;stroke-linecap:round;stroke-linejoin:bevel;stroke-miterlimit:4;stroke-opacity:1;stroke-dasharray:none;filter:url(#filter3947)" />
        <path
           sodipodi:nodetypes="cccccccccccccccc"
           id="path3843"
           d="m 3626.0436,2274.2427 c 6.6769,-11.9822 41.4205,-53.2895 55.0323,-56.0911 10.282,-13.1545 27.5777,-12.9594 41.6898,-8.304 18.2289,4.7951 37.5567,-0.6399 55.5648,5.1227 12.1025,-1.1732 22.4845,-7.5575 35.3099,-3.2272 5.4039,-6.052 10.3218,-14.8418 15.7762,-24.2769 2.5609,-7.6289 16.4039,-20.8928 11.5571,-19.0723 9.8628,-10.6303 11.9119,-28.1116 23.4128,-34.7861 5.254,-7.3519 13.1469,-6.1177 21.2545,-10.3851 12.593,5.1732 16.527,-9.7576 27.7701,-13.0336 -3.0317,-4.8147 12.7426,-12.2358 10.7081,-21.6698 1.4393,-5.4263 2.2163,-5.1266 7.1288,-12.3246 -3.1842,-5.6213 3.4601,-18.6602 -1.3461,-24.0782 1.3356,-9.7262 1.977,-15.2557 8.5335,-18.4369 l 0.8144,-1.5132 0.7492,-1.1684"
           style="fill:none;stroke:#320050;stroke-width:80;stroke-linecap:round;stroke-linejoin:bevel;stroke-miterlimit:4;stroke-opacity:1;stroke-dasharray:none;filter:url(#filter3947)" />
        <path
           style="fill:none;stroke:#ffffff;stroke-width:30;stroke-linecap:round;stroke-linejoin:bevel;stroke-miterlimit:4;stroke-opacity:1;stroke-dasharray:none;filter:url(#filter3926)"
           d="m 3221.5785,2237.4732 c 33.2611,14.6606 71.8174,21.5576 104.7313,9.1161 39.7109,4.1549 58.5406,-55.1492 97.4717,-38.0705 39.3091,12.0468 63.6593,47.5265 96.7896,64.5486 26.3831,-23.395 57.1893,0.4626 85.7184,5.0235 19.8444,-1.4168 62.4726,-18.6621 48.9491,19.4529 -13.1107,38.5949 8.0553,76.9083 35.3639,103.5694 29.2531,15.7185 56.3587,41.1413 91.1553,36.3932 11.5028,8.2344 25.5682,11.9802 36.6188,20.5841"
           id="path3903"
           sodipodi:nodetypes="ccccccccc" />
        <path
           style="fill:none;stroke:#ffffff;stroke-width:30;stroke-linecap:round;stroke-linejoin:bevel;stroke-miterlimit:4;stroke-opacity:1;stroke-dasharray:none;filter:url(#filter3926)"
           d="m 3408.2546,2209.1889 c 9.8728,-11.8315 5.9506,-28.8546 9.0606,-43.0218 2.2026,-13.4731 11.8994,-23.6948 15.2127,-37.0409 5.7577,-15.5 5.5425,-31.6129 12.0075,-46.3235 -5.8724,-12.6614 7.7036,-30.2211 18.0788,-36.0343 12.3833,-6.2708 16.2462,-24.3755 28.0824,-31.8941 10.4789,-11.0532 4.7245,-25.9253 -8.5082,-30.1611 -2.2076,-17.0863 -16.6484,-22.4654 -29.8587,-30.2342 -11.8744,-10.8184 -28.1741,-18.106 -35.4022,-32.8998 -5.7035,-15.0135 -3.2771,-20.0896 -4.8362,-33.3928 -3.1229,-10.6925 -1.9309,-9.1695 -1.2609,-21.9731 1.7306,-7.7168 5.4836,-14.7487 8.738,-21.8915"
           id="path3905" />
        <path
           style="fill:none;stroke:#ffffff;stroke-width:30;stroke-linecap:round;stroke-linejoin:bevel;stroke-miterlimit:4;stroke-opacity:1;stroke-dasharray:none;filter:url(#filter3926)"
           d="m 3626.0436,2274.2427 c 6.6769,-11.9822 41.4205,-53.2895 55.0323,-56.0911 10.282,-13.1545 27.5777,-12.9594 41.6898,-8.304 18.2289,4.7951 37.5567,-0.6399 55.5648,5.1227 12.1025,-1.1732 22.4845,-7.5575 35.3099,-3.2272 5.4039,-6.052 10.3218,-14.8418 15.7762,-24.2769 2.5609,-7.6289 16.4039,-20.8928 11.5571,-19.0723 9.8628,-10.6303 11.9119,-28.1116 23.4128,-34.7861 5.254,-7.3519 13.1469,-6.1177 21.2545,-10.3851 12.593,5.1732 16.527,-9.7576 27.7701,-13.0336 -3.0317,-4.8147 12.7426,-12.2358 10.7081,-21.6698 1.4393,-5.4263 2.2163,-5.1266 7.1288,-12.3246 -3.1842,-5.6213 3.4601,-18.6602 -1.3461,-24.0782 1.3356,-9.7262 1.977,-15.2557 8.5335,-18.4369 l 0.8144,-1.5132 0.7492,-1.1684"
           id="path3907"
           sodipodi:nodetypes="cccccccccccccccc" />
      </g>
      <path
         transform="matrix(1.0933334,0,0,1.0933334,784.98262,868.18562)"
         d="m 2953.6861,1187.7227 a 393.9595,393.9595 0 1 1 -787.919,0 393.9595,393.9595 0 1 1 787.919,0 z"
         sodipodi:ry="393.9595"
         sodipodi:rx="393.9595"
         sodipodi:cy="1187.7227"
         sodipodi:cx="2559.7266"
         id="path3004-5"
         style="fill:none;stroke:none;stroke-width:0.91463410999999994;stroke-opacity:1"
         sodipodi:type="arc" />
    </g>
  </g>
</svg>
