<?xml version="1.0" encoding="UTF-8" standalone="no"?>
<!-- Created with Inkscape (http://www.inkscape.org/) -->

<svg
   xmlns:dc="http://purl.org/dc/elements/1.1/"
   xmlns:cc="http://creativecommons.org/ns#"
   xmlns:rdf="http://www.w3.org/1999/02/22-rdf-syntax-ns#"
   xmlns:svg="http://www.w3.org/2000/svg"
   xmlns="http://www.w3.org/2000/svg"
   xmlns:xlink="http://www.w3.org/1999/xlink"
   xmlns:sodipodi="http://sodipodi.sourceforge.net/DTD/sodipodi-0.dtd"
   xmlns:inkscape="http://www.inkscape.org/namespaces/inkscape"
   width="744.09448819"
   height="1052.3622047"
   id="svg2"
   version="1.1"
   inkscape:version="0.47 r22583"
   sodipodi:docname="effects.svg">
  <defs
     id="defs4">
    <linearGradient
       id="linearGradient5272">
      <stop
         style="stop-color:#ffffff;stop-opacity:0;"
         offset="0"
         id="stop5274" />
      <stop
         id="stop5280"
         offset="0.85714287"
         style="stop-color:#ffffff;stop-opacity:0;" />
      <stop
         style="stop-color:#ffffff;stop-opacity:0.21641791;"
         offset="1"
         id="stop5276" />
    </linearGradient>
    <inkscape:perspective
       sodipodi:type="inkscape:persp3d"
       inkscape:vp_x="0 : 526.18109 : 1"
       inkscape:vp_y="0 : 1000 : 0"
       inkscape:vp_z="744.09448 : 526.18109 : 1"
       inkscape:persp3d-origin="372.04724 : 350.78739 : 1"
       id="perspective10" />
    <filter
       inkscape:collect="always"
       id="filter8442">
      <feGaussianBlur
         inkscape:collect="always"
         stdDeviation="31.658394"
         id="feGaussianBlur8444" />
    </filter>
    <filter
       inkscape:collect="always"
       id="filter8454">
      <feGaussianBlur
         inkscape:collect="always"
         stdDeviation="40.100404"
         id="feGaussianBlur8456" />
    </filter>
    <filter
       inkscape:collect="always"
       id="filter8458">
      <feGaussianBlur
         inkscape:collect="always"
         stdDeviation="25.412606"
         id="feGaussianBlur8460" />
    </filter>
    <filter
       inkscape:collect="always"
       id="filter8466">
      <feGaussianBlur
         inkscape:collect="always"
         stdDeviation="34.287969"
         id="feGaussianBlur8468" />
    </filter>
    <radialGradient
       inkscape:collect="always"
       xlink:href="#linearGradient5272"
       id="radialGradient5278"
       cx="1028.5714"
       cy="875.2193"
       fx="1028.5714"
       fy="875.2193"
       r="497.14285"
       gradientUnits="userSpaceOnUse" />
    <filter
       inkscape:collect="always"
       id="filter3672">
      <feGaussianBlur
         inkscape:collect="always"
         stdDeviation="3.1512533"
         id="feGaussianBlur3674" />
    </filter>
    <filter
       inkscape:collect="always"
       id="filter3676">
      <feGaussianBlur
         inkscape:collect="always"
         stdDeviation="3.1512533"
         id="feGaussianBlur3678" />
    </filter>
    <filter
       inkscape:collect="always"
       id="filter3680">
      <feGaussianBlur
         inkscape:collect="always"
         stdDeviation="3.1512533"
         id="feGaussianBlur3682" />
    </filter>
    <filter
       inkscape:collect="always"
       id="filter3684">
      <feGaussianBlur
         inkscape:collect="always"
         stdDeviation="3.1512533"
         id="feGaussianBlur3686" />
    </filter>
    <filter
       inkscape:collect="always"
       id="filter3688">
      <feGaussianBlur
         inkscape:collect="always"
         stdDeviation="3.1512533"
         id="feGaussianBlur3690" />
    </filter>
    <filter
       inkscape:collect="always"
       id="filter3692"
       x="-0.02903953"
       width="1.0580791"
       y="-0.17703023"
       height="1.3540605">
      <feGaussianBlur
         inkscape:collect="always"
         stdDeviation="3.1512533"
         id="feGaussianBlur3694" />
    </filter>
    <filter
       inkscape:collect="always"
       id="filter3696">
      <feGaussianBlur
         inkscape:collect="always"
         stdDeviation="3.1512533"
         id="feGaussianBlur3698" />
    </filter>
    <filter
       inkscape:collect="always"
       id="filter3700"
       x="-0.02903953"
       width="1.0580791"
       y="-0.17703023"
       height="1.3540605">
      <feGaussianBlur
         inkscape:collect="always"
         stdDeviation="3.1512533"
         id="feGaussianBlur3702" />
    </filter>
    <filter
       inkscape:collect="always"
       id="filter3704">
      <feGaussianBlur
         inkscape:collect="always"
         stdDeviation="3.1512533"
         id="feGaussianBlur3706" />
    </filter>
    <filter
       inkscape:collect="always"
       id="filter3708">
      <feGaussianBlur
         inkscape:collect="always"
         stdDeviation="3.1512533"
         id="feGaussianBlur3710" />
    </filter>
    <filter
       inkscape:collect="always"
       id="filter3712">
      <feGaussianBlur
         inkscape:collect="always"
         stdDeviation="3.1512533"
         id="feGaussianBlur3714" />
    </filter>
    <filter
       inkscape:collect="always"
       id="filter3716">
      <feGaussianBlur
         inkscape:collect="always"
         stdDeviation="3.1512533"
         id="feGaussianBlur3718" />
    </filter>
    <filter
       inkscape:collect="always"
       id="filter3926">
      <feGaussianBlur
         inkscape:collect="always"
         stdDeviation="8.6903423"
         id="feGaussianBlur3928" />
    </filter>
    <filter
       inkscape:collect="always"
       id="filter3947">
      <feGaussianBlur
         inkscape:collect="always"
         stdDeviation="8.6903423"
         id="feGaussianBlur3949" />
    </filter>
    <inkscape:perspective
       id="perspective4066"
       inkscape:persp3d-origin="0.5 : 0.33333333 : 1"
       inkscape:vp_z="1 : 0.5 : 1"
       inkscape:vp_y="0 : 1000 : 0"
       inkscape:vp_x="0 : 0.5 : 1"
       sodipodi:type="inkscape:persp3d" />
    <inkscape:perspective
       id="perspective4066-6"
       inkscape:persp3d-origin="0.5 : 0.33333333 : 1"
       inkscape:vp_z="1 : 0.5 : 1"
       inkscape:vp_y="0 : 1000 : 0"
       inkscape:vp_x="0 : 0.5 : 1"
       sodipodi:type="inkscape:persp3d" />
    <inkscape:perspective
       id="perspective4066-7"
       inkscape:persp3d-origin="0.5 : 0.33333333 : 1"
       inkscape:vp_z="1 : 0.5 : 1"
       inkscape:vp_y="0 : 1000 : 0"
       inkscape:vp_x="0 : 0.5 : 1"
       sodipodi:type="inkscape:persp3d" />
    <filter
       inkscape:collect="always"
       id="filter6263">
      <feGaussianBlur
         inkscape:collect="always"
         stdDeviation="10.793421"
         id="feGaussianBlur6265" />
    </filter>
    <filter
       inkscape:collect="always"
       id="filter6267">
      <feGaussianBlur
         inkscape:collect="always"
         stdDeviation="10.793421"
         id="feGaussianBlur6269" />
    </filter>
    <filter
       inkscape:collect="always"
       id="filter6271">
      <feGaussianBlur
         inkscape:collect="always"
         stdDeviation="10.793421"
         id="feGaussianBlur6273" />
    </filter>
  </defs>
  <sodipodi:namedview
     id="base"
     pagecolor="#000000"
     bordercolor="#666666"
     borderopacity="1.0"
     inkscape:pageopacity="0"
     inkscape:pageshadow="2"
     inkscape:zoom="0.5"
     inkscape:cx="-198.03724"
     inkscape:cy="-2575.4171"
     inkscape:document-units="px"
     inkscape:current-layer="layer1"
     showgrid="false"
     showborder="false"
     inkscape:showpageshadow="false"
     inkscape:window-width="1920"
     inkscape:window-height="1118"
     inkscape:window-x="0"
     inkscape:window-y="25"
     inkscape:window-maximized="1" />
  <metadata
     id="metadata7">
    <rdf:RDF>
      <cc:Work
         rdf:about="">
        <dc:format>image/svg+xml</dc:format>
        <dc:type
           rdf:resource="http://purl.org/dc/dcmitype/StillImage" />
        <dc:title></dc:title>
      </cc:Work>
    </rdf:RDF>
  </metadata>
  <g
     inkscape:label="Layer 1"
     inkscape:groupmode="layer"
     id="layer1">
    <rect
       style="fill:#000000;fill-opacity:1;stroke:none"
       id="rect8497"
       width="15014.907"
       height="12380.43"
       x="-6319.5142"
       y="-3376.1465"
       sodipodi:insensitive="true" />
    <g
       id="lightning2"
       inkscape:label="#g4116"
       inkscape:export-filename="/home/vdods/files/sf/xuqrijbuh/trunk/resources/lightning2.png"
       inkscape:export-xdpi="6.6900001"
       inkscape:export-ydpi="6.6900001">
      <g
         transform="translate(-15.480503,-22.378514)"
         id="g4019">
        <path
           id="path3813"
           d="m 2749.2312,1847.1502 c 9.9036,-10.0123 5.6333,-12.9138 -2.4864,-1.2751 -14.8919,15.2961 -35.479,23.3075 -52.655,35.5234 -20.1275,6.4967 -33.4862,29.0577 -33.7041,50.7081 -0.2747,19.8129 -7.9416,44.8855 -32.8457,43.8234 -24.7944,-1.1271 -49.2048,-12.033 -74.5287,-7.2051 -24.1409,-2.5547 -50.1574,-1.1247 -72.0431,9.6746 -10.8527,2.016 -28.0059,-4.867 -33.9829,11.0536 -7.2244,11.2426 -6.0491,35.185 -26.2072,23.314 -17.6047,-8.6068 -37.9155,-13.0102 -53.175,-25.1844 -16.7845,-6.0279 -30.6251,-17.705 -46.2129,-25.6025 -15.7616,-17.8159 -44.2446,-16.4561 -63.0308,-5.4914 -12.7101,1.4248 -26.8597,-8.3199 -40.8725,-7.5152"
           style="fill:none;stroke:#320050;stroke-width:80;stroke-linecap:round;stroke-linejoin:bevel;stroke-miterlimit:4;stroke-opacity:1;stroke-dasharray:none;filter:url(#filter3947)" />
        <path
           id="path3817"
           d="m 2421.1336,2045.1401 c 2.9829,-4.4349 8.425,-16.4831 1.7133,-5.6132 -11.5897,15.0567 -16.9866,33.7931 -25.6433,49.9219 -7.1419,14.0464 -15.2597,27.3503 -24.5412,40.0166 0.2704,14.2834 -3.845,29.404 -0.358,44.5702 3.2044,12.6758 4.6582,27.5634 0.2266,39.8917 -14.7983,-2.7087 -22.1182,12.7026 -35.3029,16.3185 -13.6593,1.9406 -19.3988,17.8455 -27.7039,26.9169 -5.5429,13.9772 -25.4016,11.4148 -37.887,16.1577 -16.0557,2.075 -32.3408,0.3361 -48.4935,0.9225 -2.8991,2.2638 -9.1425,2.3313 -8.5435,2.2623 -2.8875,8.3152 -9.9303,17.0618 -14.0839,26.022"
           style="fill:none;stroke:#320050;stroke-width:80;stroke-linecap:round;stroke-linejoin:bevel;stroke-miterlimit:4;stroke-opacity:1;stroke-dasharray:none;filter:url(#filter3947)" />
        <path
           id="path3821"
           d="m 2503.158,2534.458 c -1.7712,-19.1042 9.5246,-37.6693 15.3013,-56.5094 -1.9648,-19.5356 16.9071,-36.0542 35.5671,-25.8497 17.2727,-0.5995 33.8592,5.8776 52.3874,4.7399 12.1006,3.5484 23.0428,5.1867 29.8692,-7.4636 13.8743,6.3845 42.113,-12.3616 32.4846,-29.6008 -2.8636,-22.1133 12.9894,-40.57 22.6626,-59.0576 9.8199,-18.348 28.5552,-29.7092 39.6488,-46.4488 6.1881,-18.8455 25.6768,-35.4679 5.8124,-51.8537 -1.4891,-11.2217 22.203,7.9764 29.752,1.6431 23.1886,2.3266 45.1465,20.9772 68.8123,9.0152 15.31,-4.6258 31.2578,1.4031 44.8955,-0.5169 17.6929,7.9067 35.5793,14.7247 55.7611,8.9755 l 3.0088,0.2858 2.4431,0.911"
           style="fill:none;stroke:#320050;stroke-width:80;stroke-linecap:round;stroke-linejoin:bevel;stroke-miterlimit:4;stroke-opacity:1;stroke-dasharray:none;filter:url(#filter3947)" />
        <path
           style="fill:none;stroke:#ffffff;stroke-width:30;stroke-linecap:round;stroke-linejoin:bevel;stroke-miterlimit:4;stroke-opacity:1;stroke-dasharray:none;filter:url(#filter3926)"
           d="m 2749.2312,1847.1502 c 9.9036,-10.0123 5.6333,-12.9138 -2.4864,-1.2751 -14.8919,15.2961 -35.479,23.3075 -52.655,35.5234 -20.1275,6.4967 -33.4862,29.0577 -33.7041,50.7081 -0.2747,19.8129 -7.9416,44.8855 -32.8457,43.8234 -24.7944,-1.1271 -49.2048,-12.033 -74.5287,-7.2051 -24.1409,-2.5547 -50.1574,-1.1247 -72.0431,9.6746 -10.8527,2.016 -28.0059,-4.867 -33.9829,11.0536 -7.2244,11.2426 -6.0491,35.185 -26.2072,23.314 -17.6047,-8.6068 -37.9155,-13.0102 -53.175,-25.1844 -16.7845,-6.0279 -30.6251,-17.705 -46.2129,-25.6025 -15.7616,-17.8159 -44.2446,-16.4561 -63.0308,-5.4914 -12.7101,1.4248 -26.8597,-8.3199 -40.8725,-7.5152"
           id="path3897" />
        <path
           sodipodi:nodetypes="cccccccccccc"
           style="fill:none;stroke:#ffffff;stroke-width:30;stroke-linecap:round;stroke-linejoin:bevel;stroke-miterlimit:4;stroke-opacity:1;stroke-dasharray:none;filter:url(#filter3926)"
           d="m 2421.1336,2045.1401 c 2.9829,-4.4349 8.425,-33.4537 1.7133,-22.5838 -11.5897,15.0567 -16.9866,50.7637 -25.6433,66.8925 -7.1419,14.0464 -15.2597,27.3503 -24.5412,40.0166 0.2704,14.2834 -3.845,29.404 -0.358,44.5702 3.2044,12.6758 4.6582,27.5634 0.2266,39.8917 -14.7983,-2.7087 -22.1182,12.7026 -35.3029,16.3185 -13.6593,1.9406 -19.3988,17.8455 -27.7039,26.9169 -5.5429,13.9772 -25.4016,11.4148 -37.887,16.1577 -16.0557,2.075 -32.3408,0.3361 -48.4935,0.9225 -2.8991,2.2638 -9.1425,2.3313 -8.5435,2.2623 -2.8875,8.3152 -9.9303,17.0618 -14.0839,26.022"
           id="path3899" />
        <path
           style="fill:none;stroke:#ffffff;stroke-width:30;stroke-linecap:round;stroke-linejoin:bevel;stroke-miterlimit:4;stroke-opacity:1;stroke-dasharray:none;filter:url(#filter3926)"
           d="m 2503.158,2534.458 c -1.7712,-19.1042 9.5246,-37.6693 15.3013,-56.5094 -1.9648,-19.5356 16.9071,-36.0542 35.5671,-25.8497 17.2727,-0.5995 33.8592,5.8776 52.3874,4.7399 12.1006,3.5484 23.0428,5.1867 29.8692,-7.4636 13.8743,6.3845 42.113,-12.3616 32.4846,-29.6008 -2.8636,-22.1133 12.9894,-40.57 22.6626,-59.0576 9.8199,-18.348 28.5552,-29.7092 39.6488,-46.4488 6.1881,-18.8455 25.6768,-35.4679 5.8124,-51.8537 -1.4891,-11.2217 22.203,7.9764 29.752,1.6431 23.1886,2.3266 45.1465,20.9772 68.8123,9.0152 15.31,-4.6258 31.2578,1.4031 44.8955,-0.5169 17.6929,7.9067 35.5793,14.7247 55.7611,8.9755 l 3.0088,0.2858 2.4431,0.911"
           id="path3901" />
      </g>
      <path
         transform="matrix(1.0933334,0,0,1.0933334,-243.0748,865.43304)"
         d="m 2953.6861,1187.7227 a 393.9595,393.9595 0 1 1 -787.919,0 393.9595,393.9595 0 1 1 787.919,0 z"
         sodipodi:ry="393.9595"
         sodipodi:rx="393.9595"
         sodipodi:cy="1187.7227"
         sodipodi:cx="2559.7266"
         id="path3004-1"
         style="fill:none;stroke:none;stroke-width:0.91463410999999994;stroke-opacity:1"
         sodipodi:type="arc" />
    </g>
    <g
       id="explosion_dense_00"
       inkscape:label="#g8470"
       transform="matrix(0.41478055,0,0,0.41478055,-1470.8078,-174.05189)"
       inkscape:export-xdpi="14.46"
       inkscape:export-ydpi="14.46">
      <path
         id="path8404"
         d="m 1615.6875,1620.5938 c -92.0734,11.2674 -183.3059,31.9823 -272.8437,54.5937 -38.054,23.8096 -72.3078,74.4939 -123.375,60.4063 -35.5417,-15.2978 -74.9843,-46.6125 -114.7412,-25.0445 -129.85413,26.8681 -253.97482,121.019 -286.30528,253.8108 -1.02842,55.7307 -0.9474,117.4635 -39.70357,162.0461 -30.95037,49.7544 -34.81793,109.2158 -47.5,164.6876 -26.07329,78.3128 -94.47574,139.8184 -97.40625,226.0624 -14.25834,131.7138 47.56526,262.2091 141.83564,351.5325 47.44404,73.055 24.14106,177.5489 92.75811,239.0925 73.56601,76.7537 182.80155,95.1213 281.65625,118.0938 49.0082,19.0516 87.5414,73.3896 145.5147,61.3579 36.4438,-4.2754 78.9781,1.0456 100.1416,34.9546 45.7823,46.6909 121.3894,63.5543 179.6115,30.0785 57.9185,-27.0091 118.6016,-72.0708 185.9197,-50.516 66.0436,11.7491 132.0892,-12.3955 185.3122,-50.5879 115.7721,-76.6435 178.0492,-206.0622 233.5628,-328.5059 29.2054,-56.076 77.7633,-102.536 137.875,-123.4062 45.0886,-27.6367 60.1497,-82.1449 63.9375,-131.6562 18.712,-117.7907 -11.2521,-238.368 -63.8125,-343.5626 -10.1508,-66.7095 27.1352,-136.326 -4.9062,-200.5 -28.4204,-86.401 -110.9728,-157.8769 -204.4063,-156.5624 -42.3266,-15.1999 -25.7285,-67.6303 -39.9695,-100.6746 -10.4587,-46.8128 -64.6795,-58.387 -105.7339,-53.2375 -49.9557,5.4829 -74.4429,-49.7954 -82.9216,-90.2755 -11.6718,-37.1183 -46.6799,-57.8248 -82.386,-66.4896 -58.1592,-21.7366 -119.7348,-36.3061 -182.114,-35.6978 z"
         style="fill:#990d00;fill-opacity:1;stroke:none;filter:url(#filter8466)" />
      <path
         id="path8407"
         d="m 1594.8125,1638.875 c -92.0801,3.0648 -135.1058,114.3427 -227.1563,117.4688 -57.7789,-0.47 -94.4528,52.7238 -143.1874,73.25 -67.7574,5.985 -105.8488,-78.5635 -175.1563,-66.1563 -36.8301,2.0068 -70.28725,29.8252 -73.4375,67.5 -13.44999,39.1405 -55.35277,62.9939 -95.40574,59.4071 -41.21655,18.1375 -34.59275,73.1787 -20.68801,107.5304 17.78039,44.9357 54.85941,97.9885 24.14396,145.8059 -29.85899,42.8885 -66.1139,87.8968 -62.12654,143.5371 0.42812,34.7213 -9.95114,76.3008 -47.37678,87.4617 -38.11515,16.988 -86.05587,38.8511 -89.73439,86.6328 -15.52417,77.1456 26.8851,149.7564 31.15056,225.7613 15.63358,56.6137 68.53124,94.3513 123.78694,106.2387 36.47755,18.3664 46.61511,64.2272 33.87249,100.4455 -5.4242,37.6297 12.88983,72.7641 34.03376,101.8358 14.17299,46.1436 -17.44201,105.4691 26.90625,141.0937 48.15607,49.3923 133.2432,41.9895 180.5,-4.5 50.5033,-20.7259 92.1364,27.5602 137.0937,41.375 45.2148,13.7675 104.9984,5.1679 135.6258,48.2683 8.6347,37.1564 30.2439,85.5862 75.7492,82.9504 103.3946,5.1083 191.2703,-57.1008 279.598,-101.1305 50.8281,-25.7108 102.2158,13.5929 153.5896,16.1931 56.0593,7.4299 94.3734,-43.6967 123.7008,-83.6078 41.9015,-60.0199 57.9801,-132.6407 69.3616,-203.5798 11.5288,-46.9699 49.4673,-78.4052 80.4767,-112.4069 46.7829,-57.6354 92.9396,-116.0369 145.7733,-168.2493 52.0867,-64.4056 46.8026,-155.7303 14.639,-227.8127 -19.5086,-48.9875 -47.9008,-98.4054 -38.7839,-153.1111 3.2702,-45.0855 -4.8428,-91.6693 -32.3752,-128.4045 -32.2546,-61.9277 -96.0772,-112.6208 -168.5609,-108.5152 -59.7816,-17.3915 -97.7004,-77.9566 -161.3163,-86.5053 -52.1694,-23.7056 -55.746,-87.3954 -79.2511,-132.2606 -21.3249,-41.3521 -50.4968,-96.8596 -105.1016,-93.2656 -46.9373,0.032 -86.4992,-30.0393 -110.9687,-68.0625 -10.392,-10.1367 -24.7539,-16.1979 -39.375,-15.1875 z"
         style="fill:#ff8122;fill-opacity:1;stroke:none;filter:url(#filter8458)" />
      <path
         id="path8410"
         d="m 1575.8438,1706.0312 c -84.7212,5.7182 -140.1602,79.6322 -186.0649,142.6341 -51.1653,54.7048 -132.3527,42.6932 -199.3727,37.5222 -91.6205,-0.975 -196.75926,37.4405 -234.31245,127.5625 -23.85168,67.6263 -21.82965,142.2762 -54.5,207.25 -27.11608,71.9046 -45.56194,153.2024 -106.77838,205.1095 -35.05887,30.2743 -47.67059,76.9568 -45.44037,121.828 1.68315,81.5715 49.99065,153.6298 109.47666,205.8761 36.88614,39.9657 56.73068,94.8049 50.62556,149.0745 4.80154,79.5991 46.59475,168.9561 129.52278,190.9557 56.2604,17.2323 113.9978,-7.9197 170.1442,-5.378 64.3578,18.9253 107.8326,81.5735 176.883,89.1121 56.3666,16.3964 108.7617,44.2738 161.5648,68.4069 77.7156,11.4089 131.521,-59.1566 200.908,-78.3598 74.3677,-18.0439 159.4044,-8.8082 222.2426,-60.1756 55.1311,-32.2661 88.285,-93.1184 90.1636,-156.4182 11.1562,-83.7907 71.086,-147.0695 120.7272,-210.7714 43.8972,-64.976 109.7347,-129.9158 99.5854,-215.166 -3.2439,-53.3431 -32.9433,-99.0574 -52.5,-146.9688 -16.6926,-54.9639 -1.8276,-112.1822 12.75,-165.4688 7.3983,-72.4105 -43.5523,-147.3692 -117.1876,-158.7187 -77.8628,-22.5699 -172.0397,-12.9535 -233.1857,-75.2113 -55.24,-72.7107 -69.3616,-178.3248 -153.7176,-227.0368 -47.4462,-31.4209 -104.8538,-46.4633 -161.5341,-45.6582 z"
         style="fill:#ffc96d;fill-opacity:1;stroke:none;filter:url(#filter8454)" />
      <path
         id="path8439"
         d="m 1606.8125,1743.3125 c -72.6828,20.1663 -119.0532,85.5238 -172.6534,133.9527 -40.7335,37.8984 -90.6282,79.3618 -149.4091,76.3286 -50.2619,-8.8467 -94.5109,-61.4326 -148.3438,-38.2188 -83.1501,51.1748 -94.2711,162.4437 -169.24995,221.5938 -56.2094,77.9705 -34.67131,193.1804 -110.5625,259.6562 -63.75343,56.7294 -104.02062,154.4643 -63.28125,235.6562 30.35226,74.8823 108.52542,115.221 145,185.4376 23.57077,63.0661 1.03319,146.0511 59.46875,193.4374 67.28875,47.8126 155.94145,-0.1549 226.28125,39.9688 46.9217,19.8453 79.9322,60.6439 122.2119,86.9419 73.5538,38.5887 157.6737,59.3069 240.4756,57.9643 49.266,-16.5425 72.3725,-77.0773 127.9435,-80.9988 77.0663,-16.7993 166.0071,11.4129 233.744,-39.5636 68.3338,-62.0335 68.8092,-162.1561 114.4039,-237.9896 23.0441,-46.1769 65.027,-77.7588 95.9986,-117.5188 38.1158,-56.6206 66.9683,-121.6364 77.3475,-189.0229 -6.9119,-59.7238 -41.8254,-113.5628 -40.0152,-174.7319 -12.4863,-54.2606 -27.6768,-112.9208 -2.5473,-166.2056 16.4539,-47.4538 -21.7307,-106.3697 -74.1875,-101.125 -69.676,-1.2274 -135.1229,-28.9003 -203.7187,-36.5312 -51.977,-17.9769 -75.5795,-72.621 -88.1099,-121.8375 -31.6219,-86.0891 -98.287,-166.72 -192.0327,-185.218 -9.4231,-1.599 -19.2481,-3.3265 -28.7637,-1.9758 z"
         style="fill:#e9e5be;fill-opacity:1;stroke:none;filter:url(#filter8442)" />
    </g>
    <g
       id="old_lightning3"
       inkscape:label="#g3770"
       transform="translate(901.05607,-1058.6399)"
       inkscape:export-filename="/home/vdods/files/sf/xuqrijbuh/trunk/resources/lightning3.png"
       inkscape:export-xdpi="8.1099997"
       inkscape:export-ydpi="8.1099997">
      <g
         id="g3720">
        <path
           id="path3616"
           d="m -751.42857,1678.0765 c 3.59719,10.1329 12.65761,6.8707 11.42857,14.2857 8.51607,10.7276 30.73038,16.3254 22.85714,28.5714 5.03905,8.9658 -5.43284,19.6942 0.19373,30.3578 -3.54886,10.0944 0.6246,15.5432 2.66342,21.0708 -1.32611,13.622 12.78561,24.889 22.85714,25.7143 9.6042,7.9518 19.53157,10.717 29.26776,17.1709 -9.89818,5.1608 14.63096,5.7467 7.8751,11.4005 5.0612,3.3978 24.55484,17.1238 25.71428,0 13.37275,2.0869 8.37557,17.2451 14.28572,22.8571 -3.65548,7.1712 -3.05912,10.5409 8.57142,14.2858 -4.87215,7.4166 18.33098,16.8498 25.38765,22.5152 -6.73591,4.7827 17.11032,6.4764 4.67925,14.7204 -5.83179,6.9478 -27.41027,19.8678 -17.27665,25.7143 7.29201,7.9572 12.08329,1.3051 23.63481,2.7643 12.65091,-1.3326 31.48255,-7.139 37.86066,5.7143 8.16593,10.2515 -4.47895,20.812 2.85714,25.7143 -6.40992,11.9063 0.0883,21.8826 -1.42857,24.2857 -1.94261,3.4938 9.12242,2.4451 4.28571,7.1429 5.10232,1.057 -0.12711,7.0545 11.42858,5.7143 -5.82815,8.1528 18.08501,-5.253 20.35714,-1.0715 5.8428,-1.3316 17.36544,2.5328 22.59282,5.2903 4.45503,7.6604 -2.00999,7.4933 2.95768,12.046 -0.0602,8.6059 0.6584,20.5152 9.59956,11.8582 11.18963,-1.496 23.96544,-13.1915 27.34994,-25.2659 7.64623,-7.5899 15.34333,4.0648 16.69643,12.2539 -5.67383,4.0391 9.09588,2.8197 3.30357,7.7461 4.7236,-6.4928 10.7387,19.6951 6.02678,10.2902 2.27042,6.3605 -0.78295,5.2254 -2.22023,9.8695 8.73563,4.0781 0.28513,16.888 -2.5377,24.1001 3.34549,6.4278 2.88495,17.8639 -4.12599,10.0259 -7.18148,9.0063 -11.88529,37.1822 -1.71005,33.8486 2.18076,12.0888 6.81028,15.5261 0.31465,20.4754 -17.28318,8.9441 -23.83216,29.6456 -34.26446,45.7207 -6.43256,5.0496 -1.11357,19.5724 3.92486,26.9378 -1.50661,-7.7134 10.74519,13.2371 11.735,13.0175"
           style="fill:none;stroke:#350879;stroke-width:20;stroke-linecap:butt;stroke-linejoin:miter;stroke-miterlimit:4;stroke-opacity:1;stroke-dasharray:none;filter:url(#filter3712)" />
        <path
           style="fill:none;stroke:#dddddd;stroke-width:10;stroke-linecap:butt;stroke-linejoin:miter;stroke-miterlimit:4;stroke-opacity:1;stroke-dasharray:none;filter:url(#filter3708)"
           d="m -751.42857,1678.0765 c 3.59719,10.1329 12.65761,6.8707 11.42857,14.2857 8.51607,10.7276 30.73038,16.3254 22.85714,28.5714 5.03905,8.9658 -5.43284,19.6942 0.19373,30.3578 -3.54886,10.0944 0.6246,15.5432 2.66342,21.0708 -1.32611,13.622 12.78561,24.889 22.85714,25.7143 9.6042,7.9518 19.53157,10.717 29.26776,17.1709 -9.89818,5.1608 14.63096,5.7467 7.8751,11.4005 5.0612,3.3978 24.55484,17.1238 25.71428,0 13.37275,2.0869 8.37557,17.2451 14.28572,22.8571 -3.65548,7.1712 -3.05912,10.5409 8.57142,14.2858 -4.87215,7.4166 18.33098,16.8498 25.38765,22.5152 -6.73591,4.7827 17.11032,6.4764 4.67925,14.7204 -5.83179,6.9478 -27.41027,19.8678 -17.27665,25.7143 7.29201,7.9572 12.08329,1.3051 23.63481,2.7643 12.65091,-1.3326 31.48255,-7.139 37.86066,5.7143 8.16593,10.2515 -4.47895,20.812 2.85714,25.7143 -6.40992,11.9063 0.0883,21.8826 -1.42857,24.2857 -1.94261,3.4938 9.12242,2.4451 4.28571,7.1429 5.10232,1.057 -0.12711,7.0545 11.42858,5.7143 -5.82815,8.1528 18.08501,-5.253 20.35714,-1.0715 5.8428,-1.3316 17.36544,2.5328 22.59282,5.2903 4.45503,7.6604 -2.00999,7.4933 2.95768,12.046 -0.0602,8.6059 0.6584,20.5152 9.59956,11.8582 11.18963,-1.496 23.96544,-13.1915 27.34994,-25.2659 7.64623,-7.5899 15.34333,4.0648 16.69643,12.2539 -5.67383,4.0391 9.09588,2.8197 3.30357,7.7461 4.7236,-6.4928 10.7387,19.6951 6.02678,10.2902 2.27042,6.3605 -0.78295,5.2254 -2.22023,9.8695 8.73563,4.0781 0.28513,16.888 -2.5377,24.1001 3.34549,6.4278 2.88495,17.8639 -4.12599,10.0259 -7.18148,9.0063 -11.88529,37.1822 -1.71005,33.8486 2.18076,12.0888 6.81028,15.5261 0.31465,20.4754 -17.28318,8.9441 -23.83216,29.6456 -34.26446,45.7207 -6.43256,5.0496 -1.11357,19.5724 3.92486,26.9378 -1.50661,-7.7134 10.74519,13.2371 11.735,13.0175"
           id="path3607" />
      </g>
      <rect
         inkscape:label="#rect3740"
         y="1576.6566"
         x="-836.40631"
         height="712.10712"
         width="710.13727"
         id="lightning_back"
         style="fill:none;stroke:none" />
    </g>
    <g
       id="old_lightning2"
       inkscape:label="#g3764"
       transform="translate(775.79713,-218.19294)"
       inkscape:export-filename="/home/vdods/files/sf/xuqrijbuh/trunk/resources/lightning2.png"
       inkscape:export-xdpi="8.1099997"
       inkscape:export-ydpi="8.1099997">
      <g
         id="g3736">
        <path
           id="path3659"
           d="m -701.04587,2158.4792 c -2.81473,7.2522 9.22771,-21.2064 19.1929,-7.071 9.16726,9.2075 22.82766,10.847 27.27412,-2.0204 4.90383,-11.0938 12.2244,-12.313 18.18275,-24.2436 0.65376,-13.1741 2.57672,-15.5703 17.17259,-8.0812 13.90052,4.0547 29.81944,14.1741 39.39595,-1.0102 13.40096,-0.2364 26.67952,-29.3837 40.4061,-14.1421 11.66146,6.6745 24.97055,7.9081 20.20305,20.203 4.29974,23.4396 31.82522,-11.6247 41.41626,-20.203 16.15515,-10.8392 34.5023,-27.1014 43.33685,-42.1675 21.91464,-0.7443 39.18177,-18.7884 57.6784,-4.2995 12.75965,5.966 26.16271,15.9998 38.3858,6.0609 8.06953,-11.4086 0.67083,-20.8377 0,-29.2944 -2.58207,-7.0673 -23.09456,-16.0743 -10.6017,-28.5304 11.6984,-19.9129 31.77379,-40.1284 48.98749,-48.2412 16.39295,2.421 23.93317,-12.4784 36.3655,-18.1828 13.35035,4.0616 24.94321,5.0463 38.38579,10.1015 10.17118,6.8281 20.11226,6.6808 33.33504,7.0711 11.6237,5.7737 23.26731,-3.106 30.30457,-3.0305 15.53597,2.2201 17.30341,-11.0085 4.04061,-17.1725 l 0,-1.0102"
           style="fill:none;stroke:#350879;stroke-width:20;stroke-linecap:butt;stroke-linejoin:miter;stroke-miterlimit:4;stroke-opacity:1;stroke-dasharray:none;filter:url(#filter3688)" />
        <path
           style="fill:none;stroke:#d1d1d1;stroke-width:10;stroke-linecap:butt;stroke-linejoin:miter;stroke-miterlimit:4;stroke-opacity:1;stroke-dasharray:none;filter:url(#filter3684)"
           d="m -701.04587,2158.4792 c -2.81473,7.2522 9.22771,-21.2064 19.1929,-7.071 9.16726,9.2075 22.82766,10.847 27.27412,-2.0204 4.90383,-11.0938 12.2244,-12.313 18.18275,-24.2436 0.65376,-13.1741 2.57672,-15.5703 17.17259,-8.0812 13.90052,4.0547 29.81944,14.1741 39.39595,-1.0102 13.40096,-0.2364 26.67952,-29.3837 40.4061,-14.1421 11.66146,6.6745 24.97055,7.9081 20.20305,20.203 4.29974,23.4396 31.82522,-11.6247 41.41626,-20.203 16.15515,-10.8392 34.5023,-27.1014 43.33685,-42.1675 21.91464,-0.7443 39.18177,-18.7884 57.6784,-4.2995 12.75965,5.966 26.16271,15.9998 38.3858,6.0609 8.06953,-11.4086 0.67083,-20.8377 0,-29.2944 -2.58207,-7.0673 -23.09456,-16.0743 -10.6017,-28.5304 11.6984,-19.9129 31.77379,-40.1284 48.98749,-48.2412 16.39295,2.421 23.93317,-12.4784 36.3655,-18.1828 13.35035,4.0616 24.94321,5.0463 38.38579,10.1015 10.17118,6.8281 20.11226,6.6808 33.33504,7.0711 11.6237,5.7737 23.26731,-3.106 30.30457,-3.0305 15.53597,2.2201 17.30341,-11.0085 4.04061,-17.1725 l 0,-1.0102"
           id="path3642" />
      </g>
      <rect
         style="fill:none;stroke:none"
         id="rect3742"
         width="710.13727"
         height="712.10712"
         x="-836.40631"
         y="1576.6566"
         inkscape:label="#rect3740" />
    </g>
    <g
       id="old_lightning1"
       inkscape:label="#g3756"
       transform="translate(1830.3965,-238.39598)"
       inkscape:export-filename="/home/vdods/files/sf/xuqrijbuh/trunk/resources/lightning1.png"
       inkscape:export-xdpi="8.1099997"
       inkscape:export-ydpi="8.1099997">
      <g
         transform="matrix(0.98002881,0.19885555,-0.19885555,0.98002881,390.50666,172.21143)"
         id="g3730">
        <path
           id="path3661"
           d="m -511.13719,1635.2202 c -1.16457,-1.1955 -14.48895,30.0389 -21.2132,42.4264 -1.84089,7.3354 3.69552,26.5995 -13.13198,19.1929 -9.83558,3.2774 -16.99544,8.1016 -28.28428,7.0711 -24.20991,-6.9243 -7.76811,12.4129 -12.12183,21.2132 -4.65726,15.9454 -12.52924,24.473 -23.57262,40.3988 -9.20285,10.6548 -30.64438,38.9337 -25.92485,51.5251 4.16409,3.757 15.09942,10.3719 17.17259,16.1624 11.3676,-0.2051 25.38628,5.2104 31.31473,8.0812 -9.77202,10.6373 -7.48899,37.2845 -24.24366,37.3757 -7.28289,-0.4393 -16.38236,9.0158 -24.24366,15.1523 -7.20327,6.9763 -10.79028,16.946 -18.18275,22.2233 -4.27012,3.8997 -18.46114,-2.2324 -25.25381,3.0305 -9.64825,14.3913 6.63085,25.2185 14.17278,31.7891 17.71835,12.1674 -9.98928,9.3145 -14.17278,21.749 -16.97986,4.5561 -17.12114,6.6344 -31.31473,20.203 -4.18093,2.1957 -15.2106,1.6113 -20.20305,6.0609 -3.33812,5.8337 -11.21415,13.2205 -15.15229,22.2234 -7.32605,7.1169 -11.80414,27.5563 -19.1929,25.2538 -9.10014,-5.4906 -30.36925,-14.2027 -36.36549,-3.0305 -3.42188,3.1906 -9.43091,7.017 -11.11168,10.1016"
           style="fill:none;stroke:#350879;stroke-width:20;stroke-linecap:butt;stroke-linejoin:miter;stroke-miterlimit:4;stroke-opacity:1;stroke-dasharray:none;filter:url(#filter3716)" />
        <path
           style="fill:none;stroke:#d1d1d1;stroke-width:10;stroke-linecap:butt;stroke-linejoin:miter;stroke-miterlimit:4;stroke-opacity:1;stroke-dasharray:none;filter:url(#filter3680)"
           d="m -511.13719,1635.2202 c -1.16457,-1.1955 -14.48895,30.0389 -21.2132,42.4264 -1.84089,7.3354 3.69552,26.5995 -13.13198,19.1929 -9.83558,3.2774 -16.99544,8.1016 -28.28428,7.0711 -24.20991,-6.9243 -7.76811,12.4129 -12.12183,21.2132 -4.65726,15.9454 -12.52924,24.473 -23.57262,40.3988 -9.20285,10.6548 -30.64438,38.9337 -25.92485,51.5251 4.16409,3.757 15.09942,10.3719 17.17259,16.1624 11.3676,-0.2051 25.38628,5.2104 31.31473,8.0812 -9.77202,10.6373 -7.48899,37.2845 -24.24366,37.3757 -7.28289,-0.4393 -16.38236,9.0158 -24.24366,15.1523 -7.20327,6.9763 -10.79028,16.946 -18.18275,22.2233 -4.27012,3.8997 -18.46114,-2.2324 -25.25381,3.0305 -9.64825,14.3913 6.63085,25.2185 14.17278,31.7891 17.71835,12.1674 -9.98928,9.3145 -14.17278,21.749 -16.97986,4.5561 -17.12114,6.6344 -31.31473,20.203 -4.18093,2.1957 -15.2106,1.6113 -20.20305,6.0609 -3.33812,5.8337 -11.21415,13.2205 -15.15229,22.2234 -7.32605,7.1169 -11.80414,27.5563 -19.1929,25.2538 -9.10014,-5.4906 -30.36925,-14.2027 -36.36549,-3.0305 -3.42188,3.1906 -9.43091,7.017 -11.11168,10.1016"
           id="path3644" />
        <path
           id="path3663"
           d="m -653.5687,1962.5096 c 6.43091,5.3089 7.38289,12.2136 12.12183,18.1828 9.70099,8.3329 -0.73451,20.4111 6.06092,31.3147 1.94599,5.8884 7.60034,18.5194 16.16244,23.2335 5.94058,1.7813 2.43015,12.8957 6.06091,19.1929 -2.12176,7.9106 9.34526,11.405 11.11168,16.1624 10.29941,1.4079 9.89178,15.4319 10.10153,21.2133 -2.87504,11.3291 5.33329,25.1399 23.23351,31.3147 16.98263,13.3395 37.04029,20.9679 55.78426,22.0837 -2.8963,9.4109 -0.44728,19.7643 -10.3274,27.4138 0.0516,10.0229 -1.13111,25.0209 -18.18274,19.1929 -6.98259,3.5786 -10.484,15.2006 -10.10153,22.2233 0.94507,6.7759 13.02896,13.2178 18.18275,18.1828"
           style="fill:none;stroke:#350879;stroke-width:20;stroke-linecap:butt;stroke-linejoin:miter;stroke-miterlimit:4;stroke-opacity:1;stroke-dasharray:none;filter:url(#filter3676)" />
        <path
           style="fill:none;stroke:#d1d1d1;stroke-width:10;stroke-linecap:butt;stroke-linejoin:miter;stroke-miterlimit:4;stroke-opacity:1;stroke-dasharray:none;filter:url(#filter3672)"
           d="m -653.5687,1962.5096 c 6.43091,5.3089 7.38289,12.2136 12.12183,18.1828 9.70099,8.3329 -0.73451,20.4111 6.06092,31.3147 1.94599,5.8884 7.60034,18.5194 16.16244,23.2335 5.94058,1.7813 2.43015,12.8957 6.06091,19.1929 -2.12176,7.9106 9.34526,11.405 11.11168,16.1624 10.29941,1.4079 9.89178,15.4319 10.10153,21.2133 -2.87504,11.3291 5.33329,25.1399 23.23351,31.3147 16.98263,13.3395 37.04029,20.9679 55.78426,22.0837 -2.8963,9.4109 -0.44728,19.7643 -10.3274,27.4138 0.0516,10.0229 -1.13111,25.0209 -18.18274,19.1929 -6.98259,3.5786 -10.484,15.2006 -10.10153,22.2233 0.94507,6.7759 13.02896,13.2178 18.18275,18.1828"
           id="path3648" />
      </g>
      <rect
         inkscape:label="#rect3740"
         y="1576.6566"
         x="-836.40631"
         height="712.10712"
         width="710.13727"
         id="rect3744"
         style="fill:none;stroke:none" />
    </g>
    <g
       id="old_lightning0"
       inkscape:label="#g3748"
       transform="translate(1655.64,-1025.3048)"
       inkscape:export-filename="/home/vdods/files/sf/xuqrijbuh/trunk/resources/lightning0.png"
       inkscape:export-xdpi="8.1099997"
       inkscape:export-ydpi="8.1099997">
      <g
         transform="translate(17.172593,-37.375644)"
         id="g3724">
        <path
           id="path3655"
           d="m -646.49763,1644.3116 c 8.36744,9.6604 12.23585,13.6664 21.2132,22.2233 3.87808,7.2752 6.4933,19.6163 7.07107,26.264 -2.02238,22.3238 18.75627,-5.0208 27.27412,-12.1218 2.55247,-0.1468 21.67062,-10.1533 18.18275,3.8412 2.04679,10.1665 -1.78229,25.4254 10.10152,27.4735 16.13252,7.0101 34.14313,6.6022 50.50763,9.0914 9.69871,-7.9109 38.20263,-5.3491 23.2335,10.1015 -2.30176,10.3467 -13.49783,21.9057 -15.15228,28.2843 1.71149,7.9002 11.29202,14.2857 14.42624,17.8354 3.07805,7.2658 20.0966,9.5638 26.99001,18.53 4.96171,10.9541 5.47986,23.2633 5.05077,39.396 0.028,10.5557 -7.8603,19.923 -12.12183,29.2944 -2.94349,9.4418 -9.32806,19.4918 -5.05077,26.264"
           style="fill:none;stroke:#350879;stroke-width:20;stroke-linecap:butt;stroke-linejoin:miter;stroke-miterlimit:4;stroke-opacity:1;stroke-dasharray:none;filter:url(#filter3704)" />
        <path
           id="path3657"
           d="m -199.00005,1819.068 c 5.19659,5.831 -15.58928,-1.2515 -19.1929,3.0304 -15.13018,-4.2467 -24.0899,-15.5779 -37.37564,-21.2132 -14.45621,-8.0428 -23.52793,-5.0558 -35.35534,-6.0609 -19.87867,-7.094 -30.29189,3.7806 -48.48733,-4.0406 -7.36689,-2.6003 -8.72007,-8.3237 -17.17259,-11.1117 -8.48134,-2.2737 -7.72107,9.1787 -15.15229,14.1422 -13.79535,2.9134 -23.84816,6.9496 -36.36549,5.0507 -6.44259,-3.2011 -15.2037,-12.0791 -20.20305,-8.0812 -6.94987,1.3555 -12.51361,6.7915 -21.89369,9.7677 -3.94267,0.9568 -4.89118,3.6507 -8.41089,1.344"
           style="fill:none;stroke:#350879;stroke-width:20;stroke-linecap:butt;stroke-linejoin:miter;stroke-miterlimit:4;stroke-opacity:1;stroke-dasharray:none;filter:url(#filter3700)" />
        <path
           style="fill:none;stroke:#d1d1d1;stroke-width:10;stroke-linecap:butt;stroke-linejoin:miter;stroke-miterlimit:4;stroke-opacity:1;stroke-dasharray:none;filter:url(#filter3696)"
           d="m -646.49763,1644.3116 c 8.36744,9.6604 12.23585,13.6664 21.2132,22.2233 3.87808,7.2752 6.4933,19.6163 7.07107,26.264 -2.02238,22.3238 18.75627,-5.0208 27.27412,-12.1218 2.55247,-0.1468 21.67062,-10.1533 18.18275,3.8412 2.04679,10.1665 -1.78229,25.4254 10.10152,27.4735 16.13252,7.0101 34.14313,6.6022 50.50763,9.0914 9.69871,-7.9109 38.20263,-5.3491 23.2335,10.1015 -2.30176,10.3467 -13.49783,21.9057 -15.15228,28.2843 1.71149,7.9002 11.29202,14.2857 14.42624,17.8354 3.07805,7.2658 20.0966,9.5638 26.99001,18.53 4.96171,10.9541 5.47986,23.2633 5.05077,39.396 0.028,10.5557 -7.8603,19.923 -12.12183,29.2944 -2.94349,9.4418 -9.32806,19.4918 -5.05077,26.264"
           id="path3638" />
        <path
           style="fill:none;stroke:#d1d1d1;stroke-width:10;stroke-linecap:butt;stroke-linejoin:miter;stroke-miterlimit:4;stroke-opacity:1;stroke-dasharray:none;filter:url(#filter3692)"
           d="m -199.00005,1819.068 c 5.19659,5.831 -15.58928,-1.2515 -19.1929,3.0304 -15.13018,-4.2467 -24.0899,-15.5779 -37.37564,-21.2132 -14.45621,-8.0428 -23.52793,-5.0558 -35.35534,-6.0609 -19.87867,-7.094 -30.29189,3.7806 -48.48733,-4.0406 -7.36689,-2.6003 -8.72007,-8.3237 -17.17259,-11.1117 -8.48134,-2.2737 -7.72107,9.1787 -15.15229,14.1422 -13.79535,2.9134 -23.84816,6.9496 -36.36549,5.0507 -6.44259,-3.2011 -15.2037,-12.0791 -20.20305,-8.0812 -6.94987,1.3555 -12.51361,6.7915 -21.89369,9.7677 -3.94267,0.9568 -4.89118,3.6507 -8.41089,1.344"
           id="path3640" />
      </g>
      <rect
         style="fill:none;stroke:none"
         id="rect3746"
         width="710.13727"
         height="712.10712"
         x="-836.40631"
         y="1576.6566"
         inkscape:label="#rect3740" />
    </g>
    <g
       id="lightning0"
       inkscape:label="#g4106"
       inkscape:export-filename="/home/vdods/files/sf/xuqrijbuh/trunk/resources/lightning0.png"
       inkscape:export-xdpi="6.6900001"
       inkscape:export-ydpi="6.6900001">
      <path
         transform="matrix(1.0933334,0,0,1.0933334,-236.07945,-122.04166)"
         d="m 2953.6861,1187.7227 a 393.9595,393.9595 0 1 1 -787.919,0 393.9595,393.9595 0 1 1 787.919,0 z"
         sodipodi:ry="393.9595"
         sodipodi:rx="393.9595"
         sodipodi:cy="1187.7227"
         sodipodi:cx="2559.7266"
         id="path3004"
         style="fill:none;stroke:none;stroke-width:0.91463410999999994;stroke-opacity:1"
         sodipodi:type="arc" />
      <g
         transform="translate(0,6.7932291)"
         id="g3997">
        <path
           sodipodi:nodetypes="cccccccccccc"
           id="path3784"
           d="m 2194.8595,1043.8769 c 28.6377,9.0858 76.8312,-14.2948 103.8893,-12.1375 22.008,-3.5973 47.032,-26.2017 65.6433,-21.6256 -6.0662,30.288 19.6992,33.3241 24.851,63.3563 20.2273,19.4656 47.2456,26.8384 74.7191,29.5189 38.0709,11.0418 72.326,31.8055 109.3235,45.9947 26.1942,18.1078 52.4932,9.2891 79.4082,3.8454 26.0643,1.1712 56.7917,3.6113 72.7864,27.3279 21.1983,21.4286 37.5857,46.9676 61.3417,65.8983 21.5289,18.932 46.2348,32.0214 73.5033,40.1811 23.8189,29.5507 42.3651,-18.7396 64.2575,-27.2267 11.84,-4.9366 -5.5322,-38.998 5.6677,-42.5987"
           style="fill:none;stroke:#320050;stroke-width:80;stroke-linecap:round;stroke-linejoin:bevel;stroke-miterlimit:4;stroke-opacity:1;stroke-dasharray:none;filter:url(#filter3947)" />
        <path
           sodipodi:nodetypes="ccccccccccccc"
           id="path3792"
           d="m 2347.5945,1021.2495 c 11.254,-5.7295 30.0741,-46.72769 39.1921,-54.89634 5.8654,-5.98683 14.0522,-13.92344 17.626,-19.12898 1.6389,5.127 2.5884,-5.59312 5.5342,-0.0562 3.2775,-0.35015 6.3778,-8.20374 9.1951,-2.6441 7.2324,-4.56624 15.5571,-7.12713 24.4182,-8.20408 6.103,-0.59386 14.9832,-6.6805 18.4387,-3.52132 9.1302,-3.07824 19.069,-5.69485 23.0947,-15.58846 7.2882,-5.89607 12.2025,-13.94141 17.7558,-20.50735 4.3795,-1.19671 4.1831,-7.07874 7.7295,-10.30228 -1.13,-4.03403 -4.2832,-6.9976 -2.7509,-10.18377 -3.2163,-3.41202 2.8105,-5.42133 -1.7967,-5.17942 -0.648,-0.71649 -3.4074,-66.85126 -2.8734,-67.57658"
           style="fill:none;stroke:#320050;stroke-width:80;stroke-linecap:round;stroke-linejoin:bevel;stroke-miterlimit:4;stroke-opacity:1;stroke-dasharray:none;filter:url(#filter3947)" />
        <path
           sodipodi:nodetypes="cccccccccc"
           id="path3801"
           d="m 2602.1529,1148.5287 c -13.2018,10.5589 -12.1887,65.9695 -19.909,80.28 -8.5404,26.1796 -24.4225,48.9174 -38.4561,72.2311 0.3719,12.3265 2.0045,28.0998 14.2535,36.9977 11.2858,6.4784 22.5114,15.605 34.9814,18.8602 10.7524,7.462 3.0503,25.9721 18.1915,31.0557 13.1177,13.9185 25.3704,26.6157 36.0088,41.6723 20.1958,9.608 34.7438,27.3726 53.9249,38.5153 9.4335,4.93 20.2189,15.9637 33.0654,20.903 14.439,0.9211 4.7423,44.5846 12.1895,46.9792"
           style="fill:none;stroke:#320050;stroke-width:80;stroke-linecap:round;stroke-linejoin:bevel;stroke-miterlimit:4;stroke-opacity:1;stroke-dasharray:none;filter:url(#filter3947)" />
        <path
           style="fill:none;stroke:#ffffff;stroke-width:30;stroke-linecap:round;stroke-linejoin:bevel;stroke-miterlimit:4;stroke-opacity:1;stroke-dasharray:none;filter:url(#filter3926)"
           d="m 2194.8595,1043.8769 c 28.6377,9.0858 76.8312,-14.2948 103.8893,-12.1375 22.008,-3.5973 47.032,-26.2017 65.6433,-21.6256 -6.0662,30.288 19.6992,33.3241 24.851,63.3563 20.2273,19.4656 47.2456,26.8384 74.7191,29.5189 38.0709,11.0418 72.326,31.8055 109.3235,45.9947 26.1942,18.1078 52.4932,9.2891 79.4082,3.8454 26.0643,1.1712 56.7917,3.6113 72.7864,27.3279 21.1983,21.4286 37.5857,46.9676 61.3417,65.8983 21.5289,18.932 46.2348,32.0214 73.5033,40.1811 23.8189,29.5507 42.3651,-18.7396 64.2575,-27.2267 11.84,-4.9366 -5.5322,-38.998 5.6677,-42.5987"
           id="path3887"
           sodipodi:nodetypes="cccccccccccc" />
        <path
           style="fill:none;stroke:#ffffff;stroke-width:30;stroke-linecap:round;stroke-linejoin:bevel;stroke-miterlimit:4;stroke-opacity:1;stroke-dasharray:none;filter:url(#filter3926)"
           d="m 2347.5945,1021.2495 c 11.254,-5.7295 30.0741,-46.72769 39.1921,-54.89634 5.8654,-5.98683 14.0522,-13.92344 17.626,-19.12898 1.6389,5.127 2.5884,-5.59312 5.5342,-0.0562 3.2775,-0.35015 6.3778,-8.20374 9.1951,-2.6441 7.2324,-4.56624 15.5571,-7.12713 24.4182,-8.20408 6.103,-0.59386 14.9832,-6.6805 18.4387,-3.52132 9.1302,-3.07824 19.069,-5.69485 23.0947,-15.58846 7.2882,-5.89607 12.2025,-13.94141 17.7558,-20.50735 4.3795,-1.19671 4.1831,-7.07874 7.7295,-10.30228 -1.13,-4.03403 -4.2832,-6.9976 -2.7509,-10.18377 -3.2163,-3.41202 2.8105,-5.42133 -1.7967,-5.17942 -0.648,-0.71649 -3.4074,-66.85126 -2.8734,-67.57658"
           id="path3889"
           sodipodi:nodetypes="ccccccccccccc" />
        <path
           style="fill:none;stroke:#ffffff;stroke-width:30;stroke-linecap:round;stroke-linejoin:bevel;stroke-miterlimit:4;stroke-opacity:1;stroke-dasharray:none;filter:url(#filter3926)"
           d="m 2599.3245,1159.8424 c -13.2018,10.5589 -9.3603,54.6558 -17.0806,68.9663 -8.5404,26.1796 -24.4225,48.9174 -38.4561,72.2311 0.3719,12.3265 2.0045,28.0998 14.2535,36.9977 11.2858,6.4784 22.5114,15.605 34.9814,18.8602 10.7524,7.462 3.0503,25.9721 18.1915,31.0557 13.1177,13.9185 25.3704,26.6157 36.0088,41.6723 20.1958,9.608 34.7438,27.3726 53.9249,38.5153 9.4335,4.93 20.2189,15.9637 33.0654,20.903 14.439,0.9211 4.7423,44.5846 12.1895,46.9792"
           id="path3891"
           sodipodi:nodetypes="cccccccccc" />
      </g>
    </g>
    <g
       id="lightning1"
       inkscape:label="#g4098"
       inkscape:export-filename="/home/vdods/files/sf/xuqrijbuh/trunk/resources/lightning1.png"
       inkscape:export-xdpi="6.6900001"
       inkscape:export-ydpi="6.6900001">
      <g
         transform="translate(21.213166,-18.308931)"
         id="g4005">
        <path
           id="path3805"
           d="m 3648.671,803.4606 c 6.8013,20.32429 -15.1121,38.67456 -20.1796,53.08167 -10.5744,21.73851 -27.2625,41.00203 -38.0835,62.56482 21.309,21.14354 -2.2655,43.37998 -11.361,65.69138 -9.1823,20.19833 -18.4216,43.56663 -39.6081,55.88243 -14.6147,19.8269 -41.0188,33.4108 -39.78,61.276 0.6205,23.332 -31.5105,49.2877 3.5504,64.2019 18.433,4.0272 20.1987,27.8368 32.4764,38.8847 2.8649,28.5369 -25.9257,48.4564 -43.1095,68.0546 -19.2002,17.7885 -33.1564,36.8975 -50.8024,54.9196 -14.7005,24.3743 -36.7887,42.5609 -49.0825,67.4312 -9.7657,18.2342 -12.1427,58.2907 -39.3809,53.9495 -8.8686,-4.4886 -12.0414,3.7899 -18.5947,4.6004"
           style="fill:none;stroke:#320050;stroke-width:80;stroke-linecap:round;stroke-linejoin:bevel;stroke-miterlimit:4;stroke-opacity:1;stroke-dasharray:none;filter:url(#filter3947)" />
        <path
           id="path3809"
           d="m 3529.877,1227.7247 c -6.667,17.8571 19.7836,25.0592 26.6925,38.1503 8.4837,7.0011 15.893,14.1956 24.9648,18.3383 2.6597,8.2539 25.4401,12.9205 37.2671,16.4683 13.4419,9.0702 28.4343,13.2357 44.6828,14.044 10.5897,6.2297 23.7775,7.8882 32.8581,16.1447 11.4958,7.9264 14.3741,22.8612 19.3319,34.71 10.3223,9.2672 13.7502,23.0616 12.2724,36.5128 -0.7063,12.1862 -17.7461,21.8719 -15.1571,32.544 0.7486,5.8844 -4.9588,16.1858 -0.4074,25.9722 0.7153,11.3317 -3.0492,22.3417 6.3771,31.9258 -1.9584,13.583 16.993,11.881 14.1476,22.9433 5.4336,3.2035 1.1268,9.6941 6.2739,12.0595"
           style="fill:none;stroke:#320050;stroke-width:80;stroke-linecap:round;stroke-linejoin:bevel;stroke-miterlimit:4;stroke-opacity:1;stroke-dasharray:none;filter:url(#filter3947)" />
        <path
           style="fill:none;stroke:#ffffff;stroke-width:30;stroke-linecap:round;stroke-linejoin:bevel;stroke-miterlimit:4;stroke-opacity:1;stroke-dasharray:none;filter:url(#filter3926)"
           d="m 3648.671,803.4606 c 6.8013,20.32429 -15.1121,38.67456 -20.1796,53.08167 -10.5744,21.73851 -27.2625,41.00203 -38.0835,62.56482 21.309,21.14354 -2.2655,43.37998 -11.361,65.69138 -9.1823,20.19833 -18.4216,43.56663 -39.6081,55.88243 -14.6147,19.8269 -41.0188,33.4108 -39.78,61.276 0.6205,23.332 -31.5105,49.2877 3.5504,64.2019 18.433,4.0272 20.1987,27.8368 32.4764,38.8847 2.8649,28.5369 -25.9257,48.4564 -43.1095,68.0546 -19.2002,17.7885 -33.1564,36.8975 -50.8024,54.9196 -14.7005,24.3743 -36.7887,42.5609 -49.0825,67.4312 -9.7657,18.2342 -12.1427,58.2907 -39.3809,53.9495 -8.8686,-4.4886 -12.0414,3.7899 -18.5947,4.6004"
           id="path3893" />
        <path
           style="fill:none;stroke:#ffffff;stroke-width:30;stroke-linecap:round;stroke-linejoin:bevel;stroke-miterlimit:4;stroke-opacity:1;stroke-dasharray:none;filter:url(#filter3926)"
           d="m 3529.877,1227.7247 c -6.667,17.8571 19.7836,25.0592 26.6925,38.1503 8.4837,7.0011 15.893,14.1956 24.9648,18.3383 2.6597,8.2539 25.4401,12.9205 37.2671,16.4683 13.4419,9.0702 28.4343,13.2357 44.6828,14.044 10.5897,6.2297 23.7775,7.8882 32.8581,16.1447 11.4958,7.9264 14.3741,22.8612 19.3319,34.71 10.3223,9.2672 13.7502,23.0616 12.2724,36.5128 -0.7063,12.1862 -17.7461,21.8719 -15.1571,32.544 0.7486,5.8844 -4.9588,16.1858 -0.4074,25.9722 0.7153,11.3317 -3.0492,22.3417 6.3771,31.9258 -1.9584,13.583 16.993,11.881 14.1476,22.9433 5.4336,3.2035 1.1268,9.6941 6.2739,12.0595"
           id="path3895" />
      </g>
      <path
         transform="matrix(1.0933334,0,0,1.0933334,759.52677,-151.38653)"
         d="m 2953.6861,1187.7227 a 393.9595,393.9595 0 1 1 -787.919,0 393.9595,393.9595 0 1 1 787.919,0 z"
         sodipodi:ry="393.9595"
         sodipodi:rx="393.9595"
         sodipodi:cy="1187.7227"
         sodipodi:cx="2559.7266"
         id="path3004-7"
         style="fill:none;stroke:none;stroke-width:0.91463410999999994;stroke-opacity:1"
         sodipodi:type="arc" />
    </g>
    <g
       id="lightning3"
       inkscape:label="#g4126"
       inkscape:export-filename="/home/vdods/files/sf/xuqrijbuh/trunk/resources/lightning3.png"
       inkscape:export-xdpi="6.6900001"
       inkscape:export-ydpi="6.6900001">
      <g
         transform="translate(2.8284156,15.55632)"
         id="g4011">
        <path
           sodipodi:nodetypes="ccccccccc"
           id="path3835"
           d="m 3221.5785,2237.4732 c 33.2611,14.6606 71.8174,21.5576 104.7313,9.1161 39.7109,4.1549 58.5406,-55.1492 97.4717,-38.0705 39.3091,12.0468 63.6593,47.5265 96.7896,64.5486 26.3831,-23.395 57.1893,0.4626 85.7184,5.0235 19.8444,-1.4168 62.4726,-18.6621 48.9491,19.4529 -13.1107,38.5949 8.0553,76.9083 35.3639,103.5694 29.2531,15.7185 56.3587,41.1413 91.1553,36.3932 11.5028,8.2344 25.5682,11.9802 36.6188,20.5841"
           style="fill:none;stroke:#320050;stroke-width:80;stroke-linecap:round;stroke-linejoin:bevel;stroke-miterlimit:4;stroke-opacity:1;stroke-dasharray:none;filter:url(#filter3947)" />
        <path
           id="path3839"
           d="m 3408.2546,2209.1889 c 9.8728,-11.8315 5.9506,-28.8546 9.0606,-43.0218 2.2026,-13.4731 11.8994,-23.6948 15.2127,-37.0409 5.7577,-15.5 5.5425,-31.6129 12.0075,-46.3235 -5.8724,-12.6614 7.7036,-30.2211 18.0788,-36.0343 12.3833,-6.2708 16.2462,-24.3755 28.0824,-31.8941 10.4789,-11.0532 4.7245,-25.9253 -8.5082,-30.1611 -2.2076,-17.0863 -16.6484,-22.4654 -29.8587,-30.2342 -11.8744,-10.8184 -28.1741,-18.106 -35.4022,-32.8998 -5.7035,-15.0135 -3.2771,-20.0896 -4.8362,-33.3928 -3.1229,-10.6925 -1.9309,-9.1695 -1.2609,-21.9731 1.7306,-7.7168 5.4836,-14.7487 8.738,-21.8915"
           style="fill:none;stroke:#320050;stroke-width:80;stroke-linecap:round;stroke-linejoin:bevel;stroke-miterlimit:4;stroke-opacity:1;stroke-dasharray:none;filter:url(#filter3947)" />
        <path
           sodipodi:nodetypes="cccccccccccccccc"
           id="path3843"
           d="m 3626.0436,2274.2427 c 6.6769,-11.9822 41.4205,-53.2895 55.0323,-56.0911 10.282,-13.1545 27.5777,-12.9594 41.6898,-8.304 18.2289,4.7951 37.5567,-0.6399 55.5648,5.1227 12.1025,-1.1732 22.4845,-7.5575 35.3099,-3.2272 5.4039,-6.052 10.3218,-14.8418 15.7762,-24.2769 2.5609,-7.6289 16.4039,-20.8928 11.5571,-19.0723 9.8628,-10.6303 11.9119,-28.1116 23.4128,-34.7861 5.254,-7.3519 13.1469,-6.1177 21.2545,-10.3851 12.593,5.1732 16.527,-9.7576 27.7701,-13.0336 -3.0317,-4.8147 12.7426,-12.2358 10.7081,-21.6698 1.4393,-5.4263 2.2163,-5.1266 7.1288,-12.3246 -3.1842,-5.6213 3.4601,-18.6602 -1.3461,-24.0782 1.3356,-9.7262 1.977,-15.2557 8.5335,-18.4369 l 0.8144,-1.5132 0.7492,-1.1684"
           style="fill:none;stroke:#320050;stroke-width:80;stroke-linecap:round;stroke-linejoin:bevel;stroke-miterlimit:4;stroke-opacity:1;stroke-dasharray:none;filter:url(#filter3947)" />
        <path
           style="fill:none;stroke:#ffffff;stroke-width:30;stroke-linecap:round;stroke-linejoin:bevel;stroke-miterlimit:4;stroke-opacity:1;stroke-dasharray:none;filter:url(#filter3926)"
           d="m 3221.5785,2237.4732 c 33.2611,14.6606 71.8174,21.5576 104.7313,9.1161 39.7109,4.1549 58.5406,-55.1492 97.4717,-38.0705 39.3091,12.0468 63.6593,47.5265 96.7896,64.5486 26.3831,-23.395 57.1893,0.4626 85.7184,5.0235 19.8444,-1.4168 62.4726,-18.6621 48.9491,19.4529 -13.1107,38.5949 8.0553,76.9083 35.3639,103.5694 29.2531,15.7185 56.3587,41.1413 91.1553,36.3932 11.5028,8.2344 25.5682,11.9802 36.6188,20.5841"
           id="path3903"
           sodipodi:nodetypes="ccccccccc" />
        <path
           style="fill:none;stroke:#ffffff;stroke-width:30;stroke-linecap:round;stroke-linejoin:bevel;stroke-miterlimit:4;stroke-opacity:1;stroke-dasharray:none;filter:url(#filter3926)"
           d="m 3408.2546,2209.1889 c 9.8728,-11.8315 5.9506,-28.8546 9.0606,-43.0218 2.2026,-13.4731 11.8994,-23.6948 15.2127,-37.0409 5.7577,-15.5 5.5425,-31.6129 12.0075,-46.3235 -5.8724,-12.6614 7.7036,-30.2211 18.0788,-36.0343 12.3833,-6.2708 16.2462,-24.3755 28.0824,-31.8941 10.4789,-11.0532 4.7245,-25.9253 -8.5082,-30.1611 -2.2076,-17.0863 -16.6484,-22.4654 -29.8587,-30.2342 -11.8744,-10.8184 -28.1741,-18.106 -35.4022,-32.8998 -5.7035,-15.0135 -3.2771,-20.0896 -4.8362,-33.3928 -3.1229,-10.6925 -1.9309,-9.1695 -1.2609,-21.9731 1.7306,-7.7168 5.4836,-14.7487 8.738,-21.8915"
           id="path3905" />
        <path
           style="fill:none;stroke:#ffffff;stroke-width:30;stroke-linecap:round;stroke-linejoin:bevel;stroke-miterlimit:4;stroke-opacity:1;stroke-dasharray:none;filter:url(#filter3926)"
           d="m 3626.0436,2274.2427 c 6.6769,-11.9822 41.4205,-53.2895 55.0323,-56.0911 10.282,-13.1545 27.5777,-12.9594 41.6898,-8.304 18.2289,4.7951 37.5567,-0.6399 55.5648,5.1227 12.1025,-1.1732 22.4845,-7.5575 35.3099,-3.2272 5.4039,-6.052 10.3218,-14.8418 15.7762,-24.2769 2.5609,-7.6289 16.4039,-20.8928 11.5571,-19.0723 9.8628,-10.6303 11.9119,-28.1116 23.4128,-34.7861 5.254,-7.3519 13.1469,-6.1177 21.2545,-10.3851 12.593,5.1732 16.527,-9.7576 27.7701,-13.0336 -3.0317,-4.8147 12.7426,-12.2358 10.7081,-21.6698 1.4393,-5.4263 2.2163,-5.1266 7.1288,-12.3246 -3.1842,-5.6213 3.4601,-18.6602 -1.3461,-24.0782 1.3356,-9.7262 1.977,-15.2557 8.5335,-18.4369 l 0.8144,-1.5132 0.7492,-1.1684"
           id="path3907"
           sodipodi:nodetypes="cccccccccccccccc" />
      </g>
      <path
         transform="matrix(1.0933334,0,0,1.0933334,784.98262,868.18562)"
         d="m 2953.6861,1187.7227 a 393.9595,393.9595 0 1 1 -787.919,0 393.9595,393.9595 0 1 1 787.919,0 z"
         sodipodi:ry="393.9595"
         sodipodi:rx="393.9595"
         sodipodi:cy="1187.7227"
         sodipodi:cx="2559.7266"
         id="path3004-5"
         style="fill:none;stroke:none;stroke-width:0.91463410999999994;stroke-opacity:1"
         sodipodi:type="arc" />
    </g>
    <g
       id="explosion_rock_00"
       transform="translate(2.8217247,5.0029294)"
       inkscape:label="#g6275"
       inkscape:export-filename="/home/vdods/files/sf/xuqrijbuh/trunk/resources/rock_explosion_0.png"
       inkscape:export-xdpi="10.125054"
       inkscape:export-ydpi="10.125054">
      <g
         style="filter:url(#filter6271)"
         id="g5854">
        <path
           transform="translate(-60.811183,-56.568543)"
           style="fill:#2c2c2c;fill-opacity:1;stroke:none"
           d="m -1843.125,1769.2812 c -42.4083,3.7475 -78.1252,36.8235 -92.2806,75.9383 -4.9498,13.0804 -5.8469,27.2477 -11.5679,40.0962 -8.8898,24.8612 -19.9942,50.7412 -16.6477,77.7098 10.7041,32.964 39.4127,55.465 67.1531,73.9891 38.32,21.18 83.3465,19.5842 125.6124,24.1292 32.4846,2.5368 66.0877,-4.0764 93.7977,-21.6321 29.0371,-13.5543 55.0977,-34.1606 72.8784,-61.0035 11.8817,-13.7117 24.6501,-31.559 18.9296,-50.6957 -9.3136,-38.6526 -41.528,-67.1057 -75.9643,-84.1509 -42.5445,-21.961 -85.264,-43.6878 -128.7857,-63.6304 -16.9636,-6.3713 -34.8871,-11.0084 -53.125,-10.75 z"
           id="path5812" />
        <path
           style="fill:#2c2c2c;fill-opacity:1;stroke:none"
           d="m -2233.7812,1775.9375 c -84.8772,7.6021 -161.8092,60.9788 -205.8133,132.8898 -26.5515,40.7519 -41.046,91.19 -32.218,139.7039 13.6341,30.0394 39.4241,57.5952 73.0218,63.6057 20.242,0.3316 40.4791,-9.1915 60.6376,-2.871 34.2844,6.8245 69.2107,20.7939 104.5371,12.407 47.6995,-9.8093 92.2822,-43.5549 107.246,-90.9654 7.3735,-31.9238 5.857,-64.9369 8.495,-97.3934 0.6286,-15.4484 -5.6223,-30.379 -16.125,-41.5641 -18.2049,-21.6687 -41.8401,-39.6068 -53.0938,-66.375 -7.2037,-16.7351 -12.615,-36.9683 -30.2602,-45.8328 -4.9888,-2.6925 -10.7536,-4.1066 -16.4272,-3.6047 z"
           id="path5814" />
        <path
           style="fill:#2c2c2c;fill-opacity:1;stroke:none"
           d="m -2065.5,1905.3438 c -35.1109,5.2277 -62.0478,38.0786 -64.8125,72.75 -14.7033,37.0788 -39.6089,71.6909 -40.75,112.875 -1.7713,53.0185 22.7101,103.1113 54.0313,144.4687 24.1294,28.7792 66.5335,38.1474 101.5384,26.2251 28.8126,-5.1403 58.3239,-3.8876 87.2401,-7.6108 26.1778,-8.0612 52.6425,-26.6241 58.5079,-54.9319 5.5255,-31.0811 -3.0025,-64.5119 10.7566,-94.0104 9.8402,-15.9583 29.7469,-19.3349 44.8641,-27.9327 8.6579,-10.9447 2.2634,-25.4517 -0.7639,-37.293 -10.7021,-29.0594 -38.5828,-45.7108 -62.7117,-62.5643 -28.7354,-20.3616 -61.5408,-35.5341 -96.4693,-41.1251 -24.431,-6.008 -46.87,-17.7113 -69.7748,-27.6632 -6.9834,-2.1901 -14.3143,-3.5542 -21.6562,-3.1874 z"
           id="path5816" />
        <path
           style="fill:#2c2c2c;fill-opacity:1;stroke:none"
           d="m -2022.375,1690.75 c -43.9523,5.4535 -90.7471,6.0385 -130.0203,29.0741 -36.1542,25.7562 -46.0173,78.2209 -28.018,117.6198 15.7952,39.0256 56.9127,69.2547 100.0018,64.5148 40.1307,-3.8126 74.5865,-36.5038 82.7998,-75.6164 7.2055,-28.8917 10.0954,-58.7337 18.6335,-87.3357 4.0954,-13.4633 3.7863,-30.8228 -8.8994,-39.6668 -9.7394,-7.4847 -22.5756,-9.0599 -34.4974,-8.5898 z"
           id="path5818" />
        <path
           style="fill:#2c2c2c;fill-opacity:1;stroke:none"
           d="m -1616.0938,1906.3438 c -24.4652,0.7736 -42.5584,20.024 -57.1605,37.5753 -15.97,23.5399 -39.4165,40.4588 -63.6802,54.6038 -22.3766,14.2115 -46.9973,30.3746 -55.9717,56.6959 -6.7307,23.4321 4.741,46.9558 17.7642,65.8988 27.8386,43.173 69.344,80.2734 120.2982,92.3824 23.9113,5.987 50.2676,-2.3767 66.6566,-20.6982 13.2915,-14.6822 24.2718,-31.9925 41.4684,-42.6456 18.0968,-9.6647 35.7098,-25.5953 37.7188,-47.2187 5.1603,-33.2158 -10.9617,-64.3621 -23.358,-94.0632 -11.7006,-25.6541 -20.9998,-52.7865 -36.9545,-76.2181 -11.2079,-14.4163 -27.6566,-26.9608 -46.7813,-26.3124 z"
           id="path5820" />
        <path
           style="fill:#2c2c2c;fill-opacity:1;stroke:none"
           d="m -1651.5625,2282.9688 c -34.5636,0.5192 -72.093,12.2652 -92.8531,41.5741 -27.8896,42.8327 -9.8584,106.941 34.8825,130.6567 18.464,8.9908 41.6932,6.7544 57.793,-6.1181 17.0252,-10.344 29.3472,-29.291 50.0839,-32.7377 4.5212,-14.5605 -8.2393,-26.8443 -9.5948,-40.8702 -8.7312,-27.766 -13.179,-56.6114 -20.3115,-84.7861 -4.9424,-5.6111 -12.694,-7.9781 -20,-7.7187 z"
           id="path5822" />
        <path
           style="fill:#2c2c2c;fill-opacity:1;stroke:none"
           d="m -1636.9688,2103.25 c -37.2635,3.03 -76.798,2.0501 -110.5312,20.5938 -9.6273,3.7715 -9.6722,15.3714 -12.875,23.5312 -2.3703,5.4946 -9.0464,6.9554 -13.7544,3.5613 -6.9159,-2.6752 -17.7959,-0.9835 -18.2102,8.0947 -11.4793,51.8363 0.078,105.9743 20.0022,154.2404 13.3366,28.9216 37.7504,56.051 70.4545,61.5734 15.8577,2.4867 30.2712,-5.8566 44.2891,-11.7198 15.3908,-4.7615 32.1405,2.4534 41.3361,15.2056 14.805,17.9224 22.6015,42.7432 44.5486,53.8472 19.9001,11.2029 46.846,5.1359 60.5083,-13.0442 11.9766,-14.1109 15.007,-33.2771 14.285,-51.2132 3.1758,-54.2983 14.4267,-107.787 17.5022,-162.0746 0.7556,-15.86 0.056,-33.6546 -11.8676,-45.627 -13.1858,-15.2646 -32.7842,-22.2913 -51.5871,-27.6618 -30.1375,-12.8774 -60.2999,-30.096 -94.1005,-29.307 z"
           id="path5824" />
        <path
           style="fill:#2c2c2c;fill-opacity:1;stroke:none"
           d="m -2491,2097.3438 c -39.7879,7.1729 -67.2533,48.0015 -65.4796,87.2719 -9.7751,63.3541 -4.1089,131.5123 28.3502,187.9158 14.8663,22.4929 44.7817,37.597 71.3169,27.8123 27.7977,-17.2283 60.1675,-29.6239 81.169,-55.7298 10.437,-26.8736 20.6804,-53.9249 34.4873,-79.3015 3.5229,-18.8835 -11.0921,-34.5736 -24.5039,-45.6337 -22.0581,-19.1706 -38.6637,-46.2017 -40.1837,-75.8663 -7.7616,-22.0677 -31.0375,-32.1402 -51.0624,-40.4063 -10.8809,-4.027 -22.4581,-6.3974 -34.0938,-6.0624 z"
           id="path5828" />
        <path
           style="fill:#2c2c2c;fill-opacity:1;stroke:none"
           d="m -2393.6875,2379.5938 c -46.8123,8.9228 -86.4516,51.8713 -87,100.2812 8.7138,48.1005 39.4729,88.2731 71.4107,123.7425 34.4621,35.2148 71.4658,69.7031 116.536,90.7712 27.3445,6.976 55.492,-9.7415 69.9283,-32.4825 25.8723,-25.8902 32.6869,-65.2187 27.0653,-100.2852 -0.9339,-31.926 6.7868,-65.215 -5.0966,-96.0272 -9.1226,-31.5131 -30.5037,-62.2762 -62.9317,-72.5976 -32.976,-9.965 -67.9539,-6.3481 -101.6068,-12.2398 -9.4117,-0.802 -18.8568,-1.3022 -28.3052,-1.1626 z"
           id="path5830" />
        <path
           style="fill:#2c2c2c;fill-opacity:1;stroke:none"
           d="m -1987.6875,2264.625 c -41.3866,1.7191 -77.3984,27.8777 -102.9063,58.875 -33.4044,32.4404 -73.881,59.9839 -95.375,102.5938 -20.185,42.5533 -17.0754,91.5958 -8.4506,136.6458 6.3492,38.0961 -6.4702,75.5827 -16.2102,111.8829 -2.659,40.6922 30.7824,77.8361 70.0242,84.7317 41.6958,10.4871 85.045,6.5428 127.564,8.3943 88.648,-1.1334 179.2321,-19.0916 255.8023,-65.4427 23.9937,-15.9585 46.5918,-39.8224 49.1675,-69.8354 -0.9999,-29.045 -18.4832,-54.8001 -18.7166,-84.0303 -1.8685,-37.1869 -2.7738,-75.1724 -15.4527,-110.6265 -7.8638,-25.2995 -16.6628,-50.9016 -31.4779,-73.0324 -23.6265,-25.0487 -58.6428,-32.4621 -87.9561,-48.479 -34.7514,-16.314 -68.3713,-35.307 -104.309,-48.9232 -7.07,-1.8663 -14.381,-2.9348 -21.7036,-2.754 z"
           id="path5832" />
        <path
           style="fill:#2c2c2c;fill-opacity:1;stroke:none"
           d="m -1621.1875,2413.0312 c -30.6464,12.6452 -62.7837,21.7716 -92.5961,36.3322 -34.7359,23.6962 -45.3088,77.0106 -19.7794,111.0968 13.2883,23.246 30.3474,48.1081 57.5005,55.7898 32.3319,6.8741 65.9538,-13.2215 80.0582,-42.1626 18.7774,-30.6902 33.5595,-63.8984 44.0794,-98.2653 2.7007,-12.7184 -3.5623,-27.3083 -16.4804,-31.4645 -16.8968,-9.3484 -31.9321,-21.5825 -48.1572,-31.9826 -1.5417,0.2188 -3.0833,0.4375 -4.625,0.6562 z"
           id="path5834" />
        <path
           style="fill:#2c2c2c;fill-opacity:1;stroke:none"
           d="m -2228.0625,2103.0312 c -49.4964,12.7988 -101.9898,-1.891 -151.0625,13.5626 -28.0281,17.9961 -33.4741,59.058 -16.9063,86.5784 19.5574,51.4255 8.4393,109.1657 29.508,160.1529 16.424,25.5596 47.2265,35.1186 75.06,42.408 32.3265,9.3182 68.1672,17.9644 100.7562,4.9971 27.419,-11.5333 54.1513,-25.713 77.2372,-44.5579 20.3864,-21.012 26.9955,-50.5609 35.8776,-77.4969 3.6049,-12.3773 0.7477,-25.7974 -6.9546,-36.0324 -10.6741,-16.9341 -20.0013,-35.7629 -19.612,-56.2773 -1.6177,-20.4878 -5.02,-44.243 -23.4955,-56.6769 -28.4304,-22.381 -63.7442,-37.5966 -100.4081,-36.6576 z"
           id="path5836" />
        <path
           style="fill:#2c2c2c;fill-opacity:1;stroke:none"
           d="m -1832.7188,2089.75 c -29.3312,1.0313 -52.1001,25.7324 -61.6458,51.8322 -10.2373,30.0908 -38.2672,52.3433 -41.3854,85.1366 -3.3602,35.9431 14.268,70.4252 37.0835,97.0238 14.2065,15.6429 35.5225,24.4241 56.6611,22.2405 21.1877,-0.7694 42.3701,-4.0782 62.9119,-9.0776 35.6662,-14.0127 56.0061,-53.3486 55.906,-90.4055 0.054,-29.2834 -13.1371,-57.1076 -31.9731,-78.9698 -14.7853,-24.0666 -23.3104,-54.2924 -48.7456,-69.8427 -8.5525,-5.4172 -18.6783,-8.2971 -28.8126,-7.9375 z"
           id="path5838" />
      </g>
      <g
         style="filter:url(#filter6267)"
         id="g5905">
        <path
           style="fill:#434343;fill-opacity:1;stroke:none"
           d="m -2265.7188,1798.4375 c -27.0178,2.7235 -57.3247,6.282 -76.6735,27.5585 -21.1579,22.7119 -42.8176,45.1841 -67.6699,63.9053 -21.7533,19.3555 -28.6102,49.2241 -33.5688,76.6838 -2.9985,20.8953 -4.7617,42.4331 -1.494,63.3524 8.6776,29.3344 36.2237,47.4537 62.6541,59.4501 22.5307,10.5097 48.5244,15.273 72.8545,8.4979 20.777,-4.2412 41.9843,-7.0167 63.2056,-5.6032 23.9484,-0.5789 48.9192,-9.7849 63.2073,-29.8876 21.2599,-26.4931 29.5232,-60.1754 44.0065,-90.3203 7.6523,-19.8345 7.0435,-42.9302 -3.5527,-61.5917 -17.802,-40.2633 -45.9359,-76.7232 -82.7191,-101.2718 -12.1841,-6.9043 -26.1245,-11.4265 -40.25,-10.7734 z"
           id="path5869" />
        <path
           style="fill:#434343;fill-opacity:1;stroke:none"
           d="m -2066.3125,1700.3125 c -41.8004,0.9336 -85.6664,21.9017 -104.5937,60.6563 -16.1469,33.1309 -3.8282,78.7546 29.9018,95.7097 29.1418,17.6289 68.2972,21.8662 98.3794,4.1027 17.3787,-17.3581 17.0967,-44.3525 31.7812,-63.4374 11.3914,-20.4913 16.7628,-47.7571 2.8005,-68.4026 -12.255,-19.2769 -35.7964,-29.702 -58.2692,-28.6287 z"
           id="path5871" />
        <path
           style="fill:#434343;fill-opacity:1;stroke:none"
           d="m -1894.8125,1732.8125 c -34.8749,3.1582 -62.7259,26.9921 -88.2938,48.7487 -19.013,16.2986 -36.1592,40.1947 -32.3351,66.5146 7.3748,31.3742 32.517,53.6007 48.5143,80.4628 16.4778,24.158 36.2599,50.1421 66.2798,57.1947 35.2477,8.5233 71.0996,-1.7244 106.542,-3.0437 26.0857,-2.555 50.926,-15 68.2615,-34.7208 20.3878,-21.1029 38.3314,-48.0561 38.5938,-78.375 -0.5085,-23.8688 -15.8431,-44.2364 -33.8787,-58.5211 -17.0582,-14.6017 -36.2216,-26.5821 -56.8879,-35.3617 -20.7841,-9.6443 -40.2848,-21.6999 -60.0333,-33.2147 -17.4466,-8.9176 -37.5512,-9.8793 -56.7626,-9.6838 z"
           id="path5873" />
        <path
           style="fill:#434343;fill-opacity:1;stroke:none"
           d="m -2072.125,1932.4375 c -31.7894,2.1223 -57.2227,28.5497 -66.4375,57.7813 -18.7963,38.8153 -30.804,84.198 -18.25,126.7812 13.9914,34.7457 36.0459,65.6358 49.7187,100.5 15.251,21.9195 44.0529,29.2659 69.4636,26.5877 28.4256,-0.5942 57.0152,-3.4971 85.3387,-0.1051 17.6456,-2.6107 27.8753,-19.5687 33.4677,-34.9349 17.9917,-33.418 47.2008,-61.9464 53.7977,-100.6279 8.6101,-43.7378 -8.8467,-92.4114 -45.8603,-118.1289 -18.9817,-16.0476 -36.199,-34.6026 -57.3948,-47.7597 -19.8229,-6.1282 -40.0878,9.0168 -59.7266,0.7275 -14.5055,-4.2019 -28.6014,-11.7486 -44.1172,-10.8212 z"
           id="path5875" />
        <path
           style="fill:#434343;fill-opacity:1;stroke:none"
           d="m -1831.3438,2129.6562 c -53.5051,2.881 -100.1091,55.8214 -92.2092,109.604 12.5368,54.5805 79.7159,87.2439 130.678,64.8023 24.8319,-12.3086 35.6797,-41.4852 36.5597,-67.7455 0.1575,-21.1565 -4.2733,-42.0467 -5.2159,-63.1295 -4.7795,-22.4972 -27.3511,-35.1106 -47.7547,-41.125 -7.183,-1.8573 -14.6391,-2.7447 -22.0579,-2.4063 z"
           id="path5877" />
        <path
           style="fill:#434343;fill-opacity:1;stroke:none"
           d="m -1618.9062,1937.9375 c -30.3511,2.1134 -53.5176,24.288 -74.6424,43.8908 -24.2122,17.8113 -52.1343,35.3247 -63.1157,64.852 -13.9392,41.7592 18.774,90.4301 61.9143,95.7572 31.9346,11.3994 68.4633,17.8625 100.7427,4.1306 25.1897,-8.072 51.5513,-23.6727 59.7059,-50.4529 6.484,-25.156 -5.6276,-49.872 -16.6627,-71.793 -9.9256,-25.216 -12.535,-55.3025 -33.6559,-74.4994 -9.6541,-7.6315 -21.883,-12.3625 -34.2862,-11.8853 z"
           id="path5879" />
        <path
           style="fill:#434343;fill-opacity:1;stroke:none"
           d="m -1707.3125,2140.8438 c -29.0085,1.4094 -50.5705,30.6192 -50.1335,58.4028 1.6688,15.6192 2.4399,31.3068 1.5328,47.0194 -1.2879,31.8466 -2.9672,64.7477 8.0707,95.2397 4.862,21.9309 6.7941,47.6763 25.5613,62.9005 26.7132,20.8761 68.319,19.4804 93.0312,-4 14.4219,-10.3769 33.3088,-14.4498 50.5312,-9.5312 17.4754,2.9923 38.4597,0.3375 49.2841,-15.3786 11.7522,-15.8996 16.1153,-35.6943 22.3782,-54.0979 8.9297,-32.9594 15.6167,-67.1385 14.0402,-101.4223 -1.8172,-24.5755 -13.2937,-50.5952 -36.6233,-61.6131 -27.9867,-14.3343 -60.3259,-8.8243 -90.4542,-12.4569 -29.033,-2.2949 -58.0556,-5.3525 -87.2187,-5.0624 z"
           id="path5881" />
        <path
           style="fill:#434343;fill-opacity:1;stroke:none"
           d="m -1627.4375,2423.6562 c -31.4838,7.2863 -66.3807,12.1351 -90.6489,35.5652 -21.5292,19.6059 -31.5911,54.1299 -16.2857,80.3914 15.8017,32.2197 54.5446,54.3721 90.2386,44.4378 36.3377,-12.6439 64.7755,-49.4332 63.3258,-88.5434 -2.9757,-27.1136 -22.2954,-48.0698 -38.3798,-68.5697 -2.2658,-1.991 -5.1379,-3.5613 -8.25,-3.2813 z"
           id="path5883" />
        <path
           style="fill:#434343;fill-opacity:1;stroke:none"
           d="m -1996.6875,2282.75 c -31.9299,0.4942 -58.6,20.6806 -84.375,37.1562 -29.9064,16.9638 -57.051,40.4829 -73.0362,71.3755 -8.6893,16.0721 -12.3019,34.1386 -19.311,50.9164 -11.8311,32.8312 -21.3878,69.4438 -10.0251,103.78 7.3201,25.0863 16.9082,51.7399 9.2515,77.9542 -5.2045,24.2927 -11.0821,51.89 2.5271,74.5989 18.953,32.0107 63.9533,42.2819 96.4615,25.8983 25.3889,-8.8515 52.6207,-0.7811 76.1244,9.8145 25.2746,9.6882 53.4607,15.4897 80.0602,7.7039 44.2926,-9.141 86.9418,-26.0548 126.0414,-48.6726 25.7196,-16.0341 50.0721,-40.2657 53.7403,-71.761 4.0953,-34.5337 -15.109,-65.88 -17.6875,-99.7278 -2.5942,-20.9998 -0.3959,-42.3049 4.7551,-62.7127 3.2791,-31.3852 -13.696,-62.7485 -39.7689,-79.8005 -16.6816,-12.8941 -31.4142,-28.3199 -43.0275,-45.8921 -27.2945,-29.4479 -67.8174,-40.8517 -106.199,-47.1312 -18.3713,-2.6984 -36.9746,-3.6479 -55.5313,-3.5 z"
           id="path5885" />
        <path
           style="fill:#434343;fill-opacity:1;stroke:none"
           d="m -2284.5625,2102.0625 c -49.4653,5.3517 -95.9102,43.8821 -103.7609,94.0884 -4.2326,45.7375 9.4697,90.6189 23.3507,133.5952 25.3518,47.7615 83.8368,75.4175 136.8183,63.8564 30.2252,-5.8082 58.6544,-20.2263 80.7794,-41.6963 12.6402,-12.6362 26.7626,-24.4079 36.1075,-39.8404 13.6266,-23.4877 7.8414,-52.2402 -0.1451,-76.6089 -6.2477,-17.1099 -10.5055,-34.8934 -17.1812,-51.8319 -11.0347,-26.7693 -35.5671,-44.8105 -60.0874,-58.455 -29.3048,-15.5474 -62.6874,-23.7627 -95.8813,-23.1075 z"
           id="path5887" />
        <path
           style="fill:#434343;fill-opacity:1;stroke:none"
           d="m -2484.6875,2127.2812 c -37.3741,0.3197 -67.1949,37.9538 -64,74.1876 -5.7525,49.6709 2.1825,102.2509 28.4302,145.3363 25.251,30.9605 76.1671,36.0509 106.5698,9.7887 29.5898,-22.6102 41.2622,-63.0291 34.5535,-98.8505 -5.2863,-44.0257 -25.2343,-87.5623 -59.5499,-116.3695 -13.4147,-9.2108 -29.6354,-14.7185 -46.0036,-14.0926 z"
           id="path5889" />
        <path
           style="fill:#434343;fill-opacity:1;stroke:none"
           d="m -2314.3438,2392.375 c -30.9825,2.1976 -61.3037,14.8627 -92.6562,9.7812 -32.1984,7.449 -52.9026,40.6964 -53.2056,72.528 -2.669,38.2953 20.7318,74.2941 51.7368,95.0033 30.954,30.1334 51.5053,71.5718 90.5313,92.8437 36.916,17.2195 85.04,-3.0783 100.3106,-40.4276 12.6499,-26.0203 11.6509,-55.7442 19.2524,-83.1895 4.3525,-28.674 -6.8632,-56.8249 -21.223,-81.067 -15.701,-29.9968 -41.8363,-57.8361 -76.4826,-63.9477 -6.0056,-1.1816 -12.1437,-1.7281 -18.2637,-1.5244 z"
           id="path5891" />
      </g>
      <g
         style="filter:url(#filter6263)"
         id="g6063">
        <path
           transform="translate(9.899495,-1.4142136)"
           style="fill:#737373;fill-opacity:1;stroke:none"
           d="m -2383.75,1890.5625 c -25.2575,2.9322 -42.3917,26.5375 -47.9853,49.7712 -11.2698,31.5146 -16.3561,68.6491 0.2773,99.2584 20.6639,36.3206 66.8881,51.9332 106.6612,44.111 22.7554,-4.9906 44.2612,-14.6875 67.328,-18.5156 13.2135,-3.6273 14.9254,-20.9889 8.3948,-31.1401 -15.0553,-35.4437 -27.2934,-74.5203 -57.0198,-100.8599 -18.4943,-13.8551 -36.1182,-29.8742 -57.8669,-38.5226 -6.3118,-2.3177 -13.0049,-4.2965 -19.7893,-4.1024 z"
           id="path5971" />
        <path
           transform="matrix(0.90140844,0,0,0.90140844,-187.43311,201.65347)"
           style="fill:#737373;fill-opacity:1;stroke:none"
           d="m -2319.875,1787.5 c -34.3773,3.2028 -57.47,41.5782 -50.0312,74.0625 0.5476,32.8745 -5.5182,68.5626 11.8437,98.4375 26.5673,33.165 40.9163,76.6563 76.75,101.875 25.5577,10.4726 54.4706,-5.6073 68.0229,-27.6667 19.972,-33.1202 39.0846,-69.2742 40.1039,-108.8158 -1.6066,-36.6082 -26.672,-67.6224 -55.7123,-87.7547 -25.12,-19.7295 -50.7705,-41.2707 -82.227,-49.6378 -2.9047,-0.3394 -5.8214,-0.6257 -8.75,-0.5 z"
           id="path5975" />
        <path
           style="fill:#737373;fill-opacity:1;stroke:none"
           d="m -2071.1875,1948.9688 c -35.0177,0.9335 -63.3667,33.1007 -65.9304,66.9813 -2.9934,28.1854 7.7007,60.9663 34.5718,74.1206 19.7664,10.0324 45.2531,4.3455 59.6352,-12.3223 13.7144,-14.2686 24.7531,-30.9798 34.6609,-48.0296 7.6432,-14.7148 8.8438,-33.4487 -0.869,-47.5525 -12.5629,-21.3543 -37.3498,-34.5205 -62.0685,-33.1975 z"
           id="path5977" />
        <path
           style="fill:#737373;fill-opacity:1;stroke:none"
           d="m -1950.125,1996.875 c -40.6984,1.3256 -78.0139,33.3849 -85.8125,73.2188 -0.4466,17.5224 14.7486,29.7495 27.3729,39.4418 21.2643,15.238 44.5436,27.4247 66.8585,40.9416 15.0514,6.1177 32.8621,-0.8794 41.6001,-14.124 17.5827,-21.2199 24.8475,-49.9284 23.0947,-77.0938 -4.9633,-34.6641 -37.564,-64.1006 -73.1137,-62.3844 z"
           id="path5979" />
        <path
           style="fill:#737373;fill-opacity:1;stroke:none"
           d="m -2045.75,2087.875 c -24.2507,3.073 -51.3971,11.9786 -63.7188,34.8438 -15.9566,30.5036 -2.1142,71.2827 27.5484,87.8529 21.6716,13.119 49.4242,13.2795 72.2329,2.9595 25.1316,-9.5166 48.7026,-25.6098 63.6875,-48.1562 5.9294,-18.2397 -7.9593,-37.2961 -24.7728,-43.5851 -22.9454,-13.4404 -44.5026,-34.0216 -72.7254,-33.9302 -0.7506,-0.041 -1.5012,0.01 -2.2518,0.015 z"
           id="path5981" />
        <path
           style="fill:#737373;fill-opacity:1;stroke:none"
           d="m -2080,1725.6562 c -34.9306,2.3028 -70.6972,23.5421 -82.5625,57.6563 -10.3028,27.1115 8.5252,58.5699 35.3602,66.7486 45.0254,16.7441 101.0656,-19.6326 102.1885,-68.153 1.9326,-30.1704 -24.873,-57.4502 -54.9862,-56.2519 z"
           id="path5983" />
        <path
           style="fill:#737373;fill-opacity:1;stroke:none"
           d="m -1896,1747.25 c -41.3302,1.3955 -78.3844,33.8171 -87.297,73.8837 -7.1486,27.1277 1.5499,60.3907 27.277,74.6263 24.9513,16.0684 57.3471,26.1803 86.2369,15.1029 19.8504,-9.6163 27.2617,-33.5617 25.575,-54.2318 0.5562,-24.3108 4.7846,-48.6383 3.2303,-72.9227 -5.5859,-24.1653 -31.729,-37.4343 -55.0222,-36.4584 z"
           id="path5985" />
        <path
           style="fill:#737373;fill-opacity:1;stroke:none"
           d="m -1820.8438,1780.0938 c -22.3961,0.1845 -42.4725,14.9958 -52.2617,34.6542 -10.9895,20.3168 -22.5647,42.5936 -20.2695,66.4082 3.9566,19.4573 26.3357,25.6742 34.1396,42.8132 3.5872,7.5124 6.2883,15.7944 13.6929,20.5592 17.2103,13.0443 40.5339,14.7808 61.2132,11.5122 42.8215,-8.7944 74.9861,-56.5606 62.3293,-99.3846 -10.0937,-37.4486 -42.4297,-67.7556 -80.6378,-74.9043 -5.9565,-1.3371 -12.1145,-1.7017 -18.206,-1.6581 z"
           id="path5987" />
        <path
           style="fill:#737373;fill-opacity:1;stroke:none"
           d="m -1906.1562,1914.9062 c -9.936,-0.2665 -23.5165,4.4452 -23.1563,16.4063 -1.1015,20.771 23.941,34.9958 42.3437,28.1563 14.5509,-3.999 29.6392,-17.04 27.4688,-33.4688 -3.3555,-10.5497 -16.6296,-9.329 -25.4287,-9.804 -7.0859,-0.2631 -14.1229,-1.4233 -21.2275,-1.2898 z"
           id="path5989" />
        <path
           style="fill:#737373;fill-opacity:1;stroke:none"
           d="m -1623.7188,1967.1562 c -32.826,1.993 -63.779,27.3701 -70.3243,59.8969 -4.6181,26.521 14.3972,51.2691 37.2567,62.4767 19.4928,10.2069 45.1424,15.2326 64.3909,1.7406 36.1201,-22.8482 41.4339,-81.0543 9.169,-109.4622 -11.0501,-9.6948 -25.769,-15.1567 -40.4923,-14.652 z"
           id="path5991" />
        <path
           style="fill:#737373;fill-opacity:1;stroke:none"
           d="m -1710.4375,2036.25 c -19.3945,6.3706 -26.9466,28.4741 -28.0625,47.0625 -0.4389,28.4452 29.5613,54.522 57.719,45.6406 18.7226,-7.0247 40.4859,-12.4238 52.6872,-29.6093 4.888,-7.9916 -5.2394,-13.9649 -11.2426,-17.0652 -22.4238,-8.8169 -41.6498,-23.6042 -59.6959,-39.2639 -3.6608,-2.2797 -6.5593,-7.4997 -11.4052,-6.7647 z"
           id="path5993" />
        <path
           style="fill:#737373;fill-opacity:1;stroke:none"
           d="m -1660.4688,2130.7188 c -36.291,2.6784 -64.1161,37.6236 -64.9043,72.902 -2.0284,19.8971 9.2823,43.5939 30.5761,47.0748 27.1227,6.8284 49.5534,24.2369 71.2572,41.0182 11.4672,7.5141 25.2996,-1.7499 31.0746,-12.1666 12.4602,-23.4374 23.8121,-49.5833 21.3853,-76.7209 -3.5991,-25.8662 -22.4356,-47.629 -44.5169,-60.3911 -13.6002,-7.7239 -29.1865,-12.0844 -44.872,-11.7164 z"
           id="path5995" />
        <path
           style="fill:#737373;fill-opacity:1;stroke:none"
           d="m -1563.4062,2190.0938 c -24.7324,4.8102 -39.812,28.8469 -45.5838,51.6995 -4.354,21.4612 -7.2008,44.8236 0.865,65.7692 4.7601,12.041 17.3584,19.1515 30.0625,18.6563 29.0056,-0.1603 52.7666,-23.4875 63.262,-49.0114 9.1891,-21.4148 7.7252,-48.1297 -8.0433,-66.1449 -9.72,-12.2332 -24.4623,-21.6683 -40.5624,-20.9687 z"
           id="path5997" />
        <path
           style="fill:#737373;fill-opacity:1;stroke:none"
           d="m -1678.75,2266.1875 c -27.413,0.1877 -48.6246,27.9361 -46.1744,54.3397 -1.0983,29.201 12.4994,61.9212 41.0182,73.4728 30.7738,12.0086 69.7292,-7.1986 77.7496,-39.5473 8.3809,-22.6393 -3.6858,-46.9826 -18.8719,-63.6523 -12.3641,-15.0295 -30.9631,-24.9618 -50.6573,-24.6249 -1.0214,-0.035 -2.0427,0 -3.0642,0.012 z"
           id="path5999" />
        <path
           style="fill:#737373;fill-opacity:1;stroke:none"
           d="m -1834.75,2144.5938 c -30.9492,0.763 -54.9466,29.1878 -59.3002,58.3332 -8.3669,36.4471 23.1377,77.4084 61.269,75.1668 29.7004,-0.9696 53.5092,-28.7786 54.25,-57.7188 2.9428,-29.5279 -12.099,-62.7975 -41.1563,-73.4375 -4.8263,-1.671 -9.9537,-2.5027 -15.0625,-2.3437 z"
           id="path6001" />
        <path
           style="fill:#737373;fill-opacity:1;stroke:none"
           d="m -1979.3125,2297.9688 c -35.0423,0.1911 -71.8183,20.7084 -83.5,55 -12.3981,44.6116 21.0962,95.0084 66.6842,101.8566 23.7977,7.2409 53.1943,7.8315 72.4166,-10.3012 19.4549,-19.8186 26.3075,-47.76 40.2456,-71.0907 7.2394,-27.0022 -12.0596,-55.196 -36.6636,-65.3993 -18.6108,-7.9898 -39.0738,-10.427 -59.1828,-10.0654 z"
           id="path6003" />
        <path
           style="fill:#737373;fill-opacity:1;stroke:none"
           d="m -1847.25,2364.625 c -29.7686,0.5056 -53.5723,22.6677 -69.2782,46.0562 -14.2539,17.7346 -24.4717,40.7117 -20.264,63.858 2.9746,19.8338 7.6876,40.9036 22.4089,55.6048 15.6022,16.5819 40.1221,16.8244 61.2113,15.3159 18.2239,-1.9968 37.241,1.5299 54.6095,-5.8661 15.5986,-5.3677 27.4502,-18.8413 31.2061,-34.8432 7.8016,-29.2758 -4.2764,-58.7346 -14.5179,-85.7856 -9.5751,-23.8095 -26.9124,-48.1379 -53.6569,-53.34 -3.8524,-0.7706 -7.7925,-1.0892 -11.7188,-1 z"
           id="path6005" />
        <path
           style="fill:#737373;fill-opacity:1;stroke:none"
           d="m -1919.5,2555 c -38.6333,0.9258 -74.762,23.4245 -96.8207,54.3914 -9.7076,20.573 -0.2236,44.0163 12.0875,61.2324 14.3405,24.2376 33.0471,49.8074 61.952,56.8137 45.0804,12.6658 97.5614,-22.3028 100.7954,-69.5572 0.2792,-24.4504 -15.0526,-45.0872 -26.6122,-65.4341 -9.2773,-14.341 -19.8241,-30.2225 -36.6208,-36.1337 -4.8267,-1.1913 -9.8266,-1.4714 -14.7812,-1.3125 z"
           id="path6007" />
        <path
           style="fill:#737373;fill-opacity:1;stroke:none"
           d="m -1834.8438,2537.9062 c -18.0386,0.3287 -39.9029,6.1835 -47.0312,24.75 -7.749,27.3017 4.9455,56.8099 24.523,76.0054 17.2832,17.5568 46.0514,25.5278 68.3964,12.9174 25.5551,-12.5042 40.9763,-45.4541 28.7994,-72.2978 -9.3027,-24.0951 -33.6662,-41.9885 -59.875,-41.0312 -4.9353,-0.171 -9.8726,-0.4692 -14.8126,-0.3438 z"
           id="path6009" />
        <path
           style="fill:#737373;fill-opacity:1;stroke:none"
           d="m -2014.7188,2437.1875 c -28.9221,3.3877 -49.8928,25.9479 -68.8058,45.9724 -16.2362,16.1676 -20.5241,45.2737 -4.4128,63.022 14.6662,20.9313 33.6637,38.4008 49.8597,58.0081 14.1015,8.5421 30.7459,-0.5381 41.7965,-10.0338 21.3294,-18.6114 46.6795,-32.8667 65.1136,-54.6181 9.9838,-17.7268 4.7418,-39.5703 -2.6449,-57.2569 -13.4533,-30.6941 -48.8066,-46.2979 -80.9063,-45.0937 z"
           id="path6011" />
        <path
           style="fill:#737373;fill-opacity:1;stroke:none"
           d="m -2105.8438,2370.6875 c -33.3198,2.0606 -57.5867,37.273 -52.9442,69.2775 1.6104,25.5373 20.9341,52.1704 48.005,53.4851 38.7495,0.7007 69.8358,-43.7869 55.7085,-79.9425 -5.7214,-17.6645 -16.7086,-37.1331 -36.113,-41.7576 -4.8162,-0.9912 -9.7497,-1.2746 -14.6563,-1.0625 z"
           id="path6013" />
        <path
           style="fill:#737373;fill-opacity:1;stroke:none"
           d="m -2101.6562,2549.9688 c -25.0282,2.2744 -42.6956,23.9633 -52.1958,45.5164 -13.66,26.7201 -16.5095,62.0634 2.4839,87.0152 23.7028,32.5134 77.6751,37.0425 105.0504,6.7804 16.0191,-14.0658 17.0723,-38.0136 10.1927,-56.9058 -7.3395,-21.6346 -7.5044,-47.3907 -24.5625,-64.4688 -11.3001,-9.7592 -25.4269,-18.7952 -40.9687,-17.9374 z"
           id="path6015" />
        <path
           style="fill:#737373;fill-opacity:1;stroke:none"
           d="m -2288.125,2471.7812 c -22.5927,3.2904 -35.7036,24.0329 -49.2767,40.1092 -20.5581,20.9823 -30.3196,54.9059 -16.1461,81.9665 16.4486,34.4701 63.3381,50.8402 96.9204,31.6936 30.092,-15.6569 45.2226,-53.6858 35.3149,-85.9255 -6.7665,-30.5914 -28.8558,-59.4572 -60.14,-67.3316 -2.1912,-0.4339 -4.4407,-0.6054 -6.6725,-0.5122 z"
           id="path6017" />
        <path
           style="fill:#737373;fill-opacity:1;stroke:none"
           d="m -2376.2188,2410.4688 c -33.7575,0.2394 -67.2966,27.916 -68,62.8124 -1.0641,33.9857 30.3076,67.305 65.1563,63.0626 27.7826,-3.2762 47.2911,-25.5266 65.1567,-44.8698 9.8597,-10.2085 22.3834,-23.358 17.7262,-38.8469 -8.0001,-21.0578 -27.6764,-36.9435 -50.0861,-39.924 -9.8354,-2.0553 -19.9386,-2.3378 -29.9531,-2.2343 z"
           id="path6019" />
        <path
           style="fill:#737373;fill-opacity:1;stroke:none"
           d="m -2478.375,2149.1875 c -31.4626,-0.058 -55.8351,30.1293 -57.375,60.0625 -2.1307,23.7595 7.9561,51.7821 31.7812,60.8125 22.7056,7.96 50.4479,5.6985 69.5,-9.8125 13.8236,-11.6827 12.0998,-31.6456 11.1512,-47.8975 -0.3211,-22.4065 -9.2949,-47.1704 -30.6596,-57.4699 -7.4599,-3.9636 -15.9445,-6.0108 -24.3978,-5.6951 z"
           id="path6021" />
        <path
           style="fill:#737373;fill-opacity:1;stroke:none"
           d="m -2424.7812,2268 c -25.4433,3.4579 -52.0175,6.3458 -74.875,18.8125 -15.668,12.5669 -13.166,36.8485 -2.465,51.8071 14.8278,21.5839 47.8192,27.6598 68.8455,11.5803 22.0563,-14.775 36.4234,-45.2951 25.0257,-70.8561 -3.2009,-6.1111 -9.2368,-11.6376 -16.5312,-11.3438 z"
           id="path6023" />
        <path
           style="fill:#737373;fill-opacity:1;stroke:none"
           d="m -2313.8125,2138.125 c -38.1009,8.0274 -64.2916,50.5287 -55.5937,88.3125 4.6381,25.5355 20.9594,51.9844 47.4687,58.6563 23.5056,5.3549 51.2029,-13.6137 49.715,-38.8401 -1.0509,-28.1767 -8.9597,-55.5211 -15.5275,-82.7537 -4.218,-11.4212 -11.7498,-26.1988 -26.0625,-25.375 z"
           id="path6025" />
        <path
           style="fill:#737373;fill-opacity:1;stroke:none"
           d="m -2239.5625,2127.25 c -21.1679,-0.8193 -46.0129,3.553 -58.5498,22.4922 -7.3784,13.7814 -9.0152,30.0473 -9.3081,45.4747 0.5439,17.1029 3.9024,35.4815 14.9829,49.0331 13.3039,13.358 33.5985,10.6582 50.75,12.1875 22.6097,0.2248 44.433,8.6096 67.0625,7.7813 14.9315,-0.3432 23.3229,-15.5698 27.1875,-28.1876 7.3251,-23.6128 6.0943,-50.5523 -7.4995,-71.7366 -12.5443,-21.1618 -35.6319,-35.987 -60.4919,-36.4493 -8.0262,-0.6219 -16.0876,-0.665 -24.1336,-0.5953 z"
           id="path6027" />
        <path
           style="fill:#737373;fill-opacity:1;stroke:none"
           d="m -2238.9062,2250.75 c -25.5279,2.4953 -44.9246,21.358 -64.7469,35.6704 -12.11,14.3198 -7.2216,34.8914 -0.9657,50.6741 14.1763,33.2859 57.964,51.1583 90.6141,33.9962 26.3604,-12.4001 50.2925,-36.2478 53.7235,-66.3095 1.5754,-18.7495 -13.3511,-34.102 -29.3876,-41.2657 -15.1433,-7.8658 -32.0599,-13.0178 -49.2374,-12.7655 z"
           id="path6029" />
        <path
           style="fill:#737373;fill-opacity:1;stroke:none"
           d="m -1652.875,2447.8125 c -23.2759,2.1317 -48.4389,12.6124 -59.9062,34.1563 -8.868,15.518 -4.073,35.6241 8.5334,47.5885 19.5629,20.5008 55.4414,23.5298 76.599,3.7506 20.8684,-17.6327 27.1849,-53.5664 7.0167,-74.065 -8.4722,-8.2178 -20.6374,-11.7286 -32.2429,-11.4304 z"
           id="path6060" />
      </g>
    </g>
  </g>
</svg>
